<?xml  version="1.0" encoding="UTF-8"?>
<!DOCTYPE svg PUBLIC "-//W3C//DTD SVG 1.0//EN" "http://www.w3.org/TR/2001/REC-SVG-20010904/DTD/svg10.dtd" >
<svg xmlns="http://www.w3.org/2000/svg" >
<metadata>
<version>1.0</version>
<id><![CDATA[Century OS MT W01 Italic]]></id>
<vendor>Monotype Imaging Inc.</vendor>
<credits>
<name>Fonts.com WebFonts</name>
<URL>http://webfonts.fonts.com</URL>
<role>Home of the Web fonts</role>
</credits>
<license>
<URL>http://webfonts.fonts.com/Legal</URL>
</license>
<copyright><![CDATA[Copyright The Monotype Corporation. All rights reserved.]]></copyright>
<trademark><![CDATA[Century Old Style is a trademark of The Monotype Corporation in the United States and/or other countries; Monotype is a trademark of Monotype Imaging, Inc. Registered in U.S. Patent and Trademark Office and may be registered in certain other jurisdictions.]]></trademark>
<licensee>
<name></name>
</licensee>
</metadata>
<defs >
<font horiz-adv-x="397" id="dde45a09-b372-40ee-9b0a-0eff15254a1f">
<font-face font-family="" panose-1="2 2 5 4 5 4 5 9 3 4" ascent="968" descent="-222" units-per-em="1000" alphabetic="0">
</font-face>
<missing-glyph horiz-adv-x="266" />

<glyph unicode="&#xA;" />
<glyph unicode="&#xD;" />
<glyph unicode=" " horiz-adv-x="266" />
<glyph unicode="!" horiz-adv-x="229" d="M75 202Q84 236 97 285T122 390T145 507T158 623Q159 642 162 661T172 696T192 721T226 731Q246 731 260 718T275 679Q275 674 275 669T271 654T262 631T246 597Q192 493 161 393T103 202H75ZM44 92Q67 92 82 76T98 38Q98 15 83 0T44 -16Q21 -16 6 -1T-10 38Q-10 60 5 76T44 92Z"  />
<glyph unicode="&quot;" horiz-adv-x="417" d="M357 600Q360 627 363 652T374 697T396 729T433 741Q455 741 463 730T471 707Q471 699 470 692T464 674T452 645T431 600L363 456H342L357 600ZM178 600Q181 627 184 652T195 697T217 729T254 741Q276 741 284 730T292 707Q292 699 291 692T285 674T273 645T252 600L184 456H163L178 600Z"  />
<glyph unicode="#" horiz-adv-x="667" d="M221 468L264 669H314L272 468H487L527 669H579L537 468H637V416H527L487 229H637V177H477L435 -23H384L426 177H211L170 -23H118L160 177H60V229H170L211 416H60V468H221ZM261 416L221 229H437L476 416H261Z"  />
<glyph unicode="$" horiz-adv-x="448" d="M377 749L362 693Q408 683 437 666T484 630T507 591T513 557Q513 528 497 517T464 506Q446 506 437 513T422 532T416 556T415 578Q413 620 401 637T353 661L278 387Q305 371 333 354T383 314T420 263T434 198Q434 189 432 170T421 126T395 76T348 29T274 -5T167 -17L138 -124H105L135 -13Q84 -6 51 11T-3 49T-31 91T-39 130Q-39 153 -26 167T12 182Q29 182 39 175T55 159T62 141T64 127Q64 122 63 108T61 89Q61 68 69 55T90 34T117 22T143 15L227 321Q197 337 172 353T127 390T96 437T85 499Q85 548 109 591T175 661Q194 674 216 681T260 691T299 694T329 695L344 749H377ZM321 665Q292 665 264 662T205 639Q174 620 159 590T143 531Q143 504 154 483T182 447T217 421T249 403L321 665ZM176 13Q206 15 238 20T306 47Q328 61 340 77T360 109T369 138T371 161Q371 190 359 212T330 252T292 282T255 305L176 13Z"  />
<glyph unicode="%" horiz-adv-x="708" d="M232 735Q256 735 276 725T311 698T334 660T342 615Q342 576 327 535T286 460T228 404T161 382Q141 382 122 390T88 414T64 450T54 496Q54 527 66 568T100 647T156 709T232 735ZM160 403Q186 403 205 420T239 462T263 518T278 576T286 624T289 649Q289 659 286 670T276 692T259 708T234 714Q213 714 195 700T163 663T139 613T121 558T111 508T107 471Q107 460 110 448T119 426T136 410T160 403ZM591 331Q615 331 635 321T670 294T693 256T701 211Q701 172 686 131T645 56T587 0T520 -22Q500 -22 481 -14T447 10T423 46T413 92Q413 123 425 164T459 243T515 305T591 331ZM519 -1Q545 -1 564 15T597 57T621 113T637 171T645 219T648 246Q648 267 635 288T593 310Q572 310 554 296T522 259T498 209T480 154T470 104T466 67Q466 56 469 44T478 22T495 6T519 -1ZM716 737L69 -25H37L685 737H716Z"  />
<glyph unicode="&amp;" horiz-adv-x="760" d="M518 342L526 370H777L768 342Q747 340 730 336T699 324T671 303T642 271Q616 236 600 214T568 176T537 143T494 101Q500 92 508 81T529 59T556 41T590 34Q613 34 632 42T667 62T693 86T711 107L732 88Q721 75 705 57T667 21T616 -8T553 -20Q528 -20 510 -13T476 4T450 28T429 53Q410 41 389 28T344 5T292 -13T232 -20Q188 -20 153 -6T93 32T55 86T41 149Q41 202 70 243T140 316T226 370T303 407Q301 422 299 450T296 506Q296 554 312 596T356 671T422 722T507 741Q564 741 597 709T631 620Q631 576 611 545T557 489T477 445T383 407Q392 354 404 311T429 234T455 172T478 125Q540 180 575 227T610 299Q610 317 592 329T538 342H518ZM378 438Q402 447 436 462T500 500T553 555T575 632Q575 670 556 691T501 713Q475 713 452 701T411 664T383 604T372 520Q372 501 373 483T378 438ZM307 378Q282 368 252 352T196 312T151 256T133 179Q133 150 143 123T172 75T217 41T276 28Q300 28 321 33T359 45T390 61T415 77Q404 96 391 123T362 187T333 271T307 378Z"  />
<glyph unicode="&apos;" horiz-adv-x="219" d="M165 600Q168 627 171 652T182 697T204 729T241 741Q263 741 271 730T279 707Q279 699 278 692T272 674T260 645T239 600L171 456H150L165 600Z"  />
<glyph unicode="(" horiz-adv-x="302" d="M155 -184Q141 -163 124 -135T90 -70T64 8T53 99Q53 163 70 244T129 411T239 581T409 737L425 714Q358 661 309 595T226 460T172 322T140 197T125 97T121 37Q121 2 128 -30T144 -90T163 -139T178 -171L155 -184Z"  />
<glyph unicode=")" horiz-adv-x="302" d="M147 738Q161 717 178 689T212 624T238 546T249 455Q249 391 232 310T173 143T63 -27T-107 -183L-123 -160Q-56 -107 -7 -41T76 94T130 232T162 357T177 457T181 517Q181 551 174 584T158 644T139 693T124 725L147 738Z"  />
<glyph unicode="*" horiz-adv-x="469" d="M284 500Q271 493 263 488T246 475T228 458T203 432Q198 426 190 418T171 403T150 390T127 384Q114 384 104 394T93 420Q93 446 115 458T176 478Q197 483 211 487T236 495T256 503T275 514Q266 520 258 524T241 532T218 540T184 548Q172 550 157 554T127 566T103 583T93 608Q93 622 103 633T127 645Q144 645 163 632T206 595Q222 578 232 568T250 550T265 539T284 528Q284 540 283 550T281 571T275 596T265 629Q255 658 254 669T252 689Q252 716 264 726T291 737Q306 737 317 725T329 687Q329 679 328 668T317 629Q312 613 309 602T304 579T301 556T299 528Q306 531 312 535T327 545T347 562T375 591Q395 613 413 628T454 644Q468 644 479 634T490 608Q490 582 464 569T395 546Q375 541 362 538T339 530T323 522T309 514Q319 508 327 504T345 495T368 487T401 479Q418 475 434 470T462 459T482 443T490 420Q490 406 480 395T456 383Q444 383 433 388T411 402T393 417T381 430Q364 448 355 458T337 475T321 487T299 500Q299 489 299 480T302 461T307 437T317 403Q325 377 327 363T330 339Q330 312 318 301T292 290Q271 290 262 307T253 342Q253 348 254 359T265 398Q271 416 274 428T279 452T282 474T284 500Z"  />
<glyph unicode="+" horiz-adv-x="667" d="M322 347V585H374V347H613V295H374V57H322V295H84V347H322Z"  />
<glyph unicode="&#x2c;" horiz-adv-x="260" d="M-26 -131Q-12 -122 5 -111T36 -88T60 -63T70 -38Q70 -30 64 -21T50 -3Q33 16 30 25T27 43Q27 63 41 77T79 92Q105 92 123 74T141 23Q141 -10 123 -38T80 -89T29 -128T-13 -153L-26 -131Z"  />
<glyph unicode="-" horiz-adv-x="260" d="M221 265V204H41V265H221Z"  />
<glyph unicode="." horiz-adv-x="208" d="M54 92Q77 92 92 76T108 38Q108 15 93 0T54 -16Q31 -16 16 -1T0 38Q0 60 15 76T54 92Z"  />
<glyph unicode="/" horiz-adv-x="281" d="M19 -16H-34L328 721H381L19 -16Z"  />
<glyph unicode="0" horiz-adv-x="531" d="M377 697Q413 697 443 678T496 628T530 557T542 474Q542 424 529 369T491 259T435 155T364 67T285 7T201 -16Q160 -16 130 5T79 58T48 128T37 202Q37 257 51 315T89 428T147 532T218 617T296 675T377 697ZM382 669Q352 669 327 657T284 630T255 600T241 580Q211 533 186 473T144 353T118 235T108 137Q108 129 110 109T120 67T147 29T199 12Q246 12 285 44T354 126T406 239T442 360T464 469T471 545Q471 579 463 602T442 641T413 662T382 669Z"  />
<glyph unicode="1" horiz-adv-x="531" d="M420 697L265 126Q263 119 259 99T254 61Q254 43 273 36T346 28H391L382 0H36L44 28H88Q103 28 118 29T146 35T169 51T185 84L305 519Q307 528 309 541T312 569Q312 586 305 595T281 608T237 612T170 613L177 641Q257 644 311 660T406 697H420Z"  />
<glyph unicode="2" horiz-adv-x="531" d="M256 60Q298 60 325 65T373 84T410 119T447 177L472 166L399 0H-8V25Q16 58 39 86T91 144T160 209T257 291Q316 339 355 376T419 446T453 508T464 567Q464 579 460 596T443 630T410 657T354 669Q316 669 295 660T264 637T252 604T249 566Q249 561 248 549T241 525T224 503T191 493Q167 493 158 508T148 540Q148 568 164 596T210 647T280 683T370 697Q415 697 448 686T502 654T534 606T544 549Q544 508 530 477T489 416T420 357T325 292Q293 271 258 247T188 195T119 134T54 60H256Z"  />
<glyph unicode="3" horiz-adv-x="531" d="M329 354Q342 351 364 343T409 317T447 271T463 198Q463 151 442 112T384 45T302 0T205 -16Q156 -16 121 -2T62 33T27 79T16 125Q16 131 18 140T25 159T41 174T69 181Q89 181 104 169T119 137Q119 133 118 125T114 107T111 89T109 77Q109 44 137 28T201 12Q254 12 289 36T346 95T376 167T385 231Q385 246 380 265T363 302T330 330T277 342Q274 342 267 341T250 339T234 337T223 336Q215 336 206 342T197 359Q197 369 204 374T222 380Q226 380 235 379T254 375T274 372T286 370Q319 370 349 386T403 429T441 491T456 567Q456 620 427 644T353 669Q318 669 291 654T251 588Q248 576 245 565T235 546T220 532T195 527Q176 527 165 537T153 567Q153 592 167 615T208 657T269 686T348 697Q383 697 416 688T475 661T516 615T532 549Q532 501 510 468T456 413T389 377T329 356V354Z"  />
<glyph unicode="4" horiz-adv-x="531" d="M502 697L368 208H498L490 176H360Q352 151 347 135T339 106T335 85T334 65Q334 51 340 44T358 34T383 29T414 28L407 0H169L177 28Q201 28 222 32T258 60Q261 64 263 68T268 83T277 115T293 176H17V212L453 697H502ZM411 600L409 602L55 208H303L411 600Z"  />
<glyph unicode="5" horiz-adv-x="531" d="M540 681L509 621H241L144 375L146 373Q157 382 172 392T205 412T248 427T301 433Q346 433 377 417T429 376T459 319T469 255Q469 204 451 156T399 69T315 7T202 -16Q164 -16 131 -7T72 20T32 62T17 116Q17 124 19 134T26 154T41 170T68 177Q94 177 106 162T118 133Q118 129 117 120T115 102T112 83T111 71Q111 53 120 42T142 24T170 15T198 12Q241 12 272 30T324 77T359 139T379 204T388 258T391 288Q391 309 385 328T365 364T331 389T285 399Q255 399 229 390T181 368T142 341T112 316L90 325L230 681H540Z"  />
<glyph unicode="6" horiz-adv-x="531" d="M150 308Q167 327 186 347T230 384T282 411T346 422Q388 422 416 407T462 369T488 319T496 267Q496 221 478 171T426 80T343 11T231 -16Q189 -16 159 -4T108 29T75 73T57 120T48 163T46 194Q46 248 60 306T100 420T163 526T245 614T343 674T453 697Q507 697 536 677T566 623Q566 600 551 588T517 575Q494 575 483 586T462 617Q452 637 440 650T402 663Q359 663 320 632T247 550T188 437T148 310L150 308ZM132 252Q128 230 125 206T122 152Q122 141 123 118T134 72T165 30T225 12Q268 12 303 37T362 101T400 187T413 280Q413 316 402 336T375 367T344 381T321 384Q290 384 263 371T211 337T167 294T132 252Z"  />
<glyph unicode="7" horiz-adv-x="531" d="M625 681L614 640Q542 563 484 488T382 342T309 211T267 101Q256 63 249 41T235 5T219 -12T195 -16Q178 -16 168 -10T153 5T146 21T144 33Q144 50 157 83T198 166T273 279T386 422L557 621H352Q313 621 285 611T233 583T190 538T149 477L123 491L221 681H625Z"  />
<glyph unicode="8" horiz-adv-x="531" d="M361 357Q376 348 396 334T435 299T467 249T481 182Q481 143 466 108T420 45T344 1T238 -16Q190 -16 150 -5T81 27T36 77T19 143Q19 188 41 220T96 276T166 316T235 344Q191 376 165 413T138 501Q138 530 151 564T192 628T261 677T357 697Q391 697 424 688T482 661T523 614T539 549Q539 507 520 476T473 421T415 383T361 357ZM337 373Q369 387 385 397T417 423Q443 449 459 482T475 557Q475 609 442 639T357 669Q328 669 301 659T252 631T217 589T204 535Q204 508 214 486T243 446T285 410T337 373ZM260 325Q227 315 207 306T167 279Q132 250 114 212T96 133Q96 97 109 74T144 37T190 18T238 12Q273 12 304 21T360 48T398 92T413 151Q413 180 404 202T375 243T327 282T260 325Z"  />
<glyph unicode="9" horiz-adv-x="531" d="M430 373Q413 353 394 333T350 297T297 270T234 259Q192 259 164 274T118 312T92 362T84 414Q84 460 102 510T154 601T237 670T349 697Q391 697 421 685T472 652T505 608T523 561T532 518T534 487Q534 433 520 375T480 261T417 155T335 67T237 7T127 -16Q73 -16 44 4T14 58Q14 81 29 93T63 106Q86 106 97 95T118 64Q128 44 140 31T178 18Q221 18 260 49T333 131T392 244T432 371L430 373ZM448 429Q452 451 455 475T458 529Q458 540 457 563T446 609T415 651T355 669Q311 669 277 644T218 580T180 494T167 401Q167 365 178 345T205 314T236 300T259 297Q290 297 317 310T369 344T413 387T448 429Z"  />
<glyph unicode=":" horiz-adv-x="260" d="M188 484Q211 484 226 468T242 430Q242 407 227 392T188 376Q165 376 150 391T134 430Q134 452 149 468T188 484ZM80 92Q103 92 118 76T134 38Q134 15 119 0T80 -16Q57 -16 42 -1T26 38Q26 60 41 76T80 92Z"  />
<glyph unicode=";" horiz-adv-x="260" d="M-26 -131Q-12 -122 5 -111T36 -88T60 -63T70 -38Q70 -30 64 -21T50 -3Q33 16 30 25T27 43Q27 63 41 77T79 92Q105 92 123 74T141 23Q141 -10 123 -38T80 -89T29 -128T-13 -153L-26 -131ZM185 484Q208 484 223 468T239 430Q239 407 224 392T185 376Q162 376 147 391T131 430Q131 452 146 468T185 484Z"  />
<glyph unicode="&lt;" horiz-adv-x="667" d="M85 299V346L612 568V511L156 322L612 133V76L85 299Z"  />
<glyph unicode="=" horiz-adv-x="667" d="M613 464V412H84V464H613ZM613 235V183H84V235H613Z"  />
<glyph unicode="&gt;" horiz-adv-x="667" d="M612 345V298L85 76V133L542 321L85 510V568L612 345Z"  />
<glyph unicode="?" horiz-adv-x="313" d="M107 203H74L130 407Q151 405 161 404T182 403Q234 403 265 425T313 477T335 536T341 581Q341 600 337 619T322 653T298 678T264 688Q253 688 241 684T207 657Q188 637 178 633T158 629Q138 629 127 641T116 668Q116 692 138 711T215 731Q264 731 295 714T345 669T370 609T377 544Q377 484 360 444T316 380T257 347T195 337Q181 337 167 337T145 339L107 203ZM43 92Q66 92 81 76T97 38Q97 15 82 0T43 -16Q20 -16 5 -1T-11 38Q-11 60 4 76T43 92Z"  />
<glyph unicode="@" horiz-adv-x="917" d="M631 319Q616 264 607 232T593 181T587 153T585 134Q585 130 586 124T592 112T603 102T621 97Q656 97 693 121T760 189T809 290T829 415Q829 479 807 534T743 629T643 693T513 716Q415 716 338 676T206 569T123 420T94 250Q94 162 122 90T202 -33T323 -112T476 -140Q528 -140 584 -127T692 -82T789 2T868 130H896Q872 55 827 -1T725 -94T603 -150T473 -169Q383 -169 305 -137T170 -48T80 88T47 263Q47 366 84 454T184 605T331 705T509 741Q598 741 663 713T772 637T837 530T858 406Q858 350 841 289T790 178T706 94T589 61Q557 61 536 76T514 128Q514 149 516 166T523 198L521 200Q506 181 485 157T440 112T387 76T330 61Q307 61 291 72T263 100T247 136T242 174Q242 213 254 253T287 332T335 403T392 462T452 502T511 517Q542 517 564 501T594 450H596L611 503L688 514L631 319ZM516 494Q493 494 469 478T423 434T382 374T349 306T327 241T319 189Q319 165 334 143T375 120Q399 120 422 134T465 167T500 207T524 241Q534 257 543 280T560 330T572 381T577 424Q577 451 561 472T516 494Z"  />
<glyph unicode="A" horiz-adv-x="708" d="M515 741L546 132Q548 96 555 76T576 46T609 32T655 28L646 0H367L376 28Q393 28 411 29T443 37T466 54T474 87L465 256H203L131 134Q128 129 119 110T109 70Q109 55 118 47T139 35T164 30T185 28L178 0H-53L-45 28Q-18 29 2 39T37 62T62 89T79 115L434 722L515 741ZM444 664H442L224 292H462L444 664Z"  />
<glyph unicode="B" horiz-adv-x="625" d="M329 721Q347 721 377 721T440 716T508 701T571 674T616 629T634 561Q634 514 609 482T549 429T479 397T425 382V380Q468 365 497 347T543 308T568 264T576 216Q576 155 549 114T479 48T385 11T287 0H-39L-30 28Q-7 29 8 32T35 43T53 66T67 105L206 606Q208 612 211 627T215 659Q215 671 208 677T190 687T165 692T136 693L144 721H329ZM230 393H298Q317 393 338 394T381 399T422 409T458 425Q478 437 494 455T520 494T536 537T542 579Q542 622 522 645T475 678T423 691T387 693Q373 693 359 691T333 682T311 663T295 628L230 393ZM222 365L147 92Q143 82 143 67Q143 43 165 36T238 28Q282 28 326 34T401 64Q418 76 433 96T459 141T477 194T484 253Q484 286 473 307T441 342T395 360T338 365H222Z"  />
<glyph unicode="C" horiz-adv-x="604" d="M654 535L629 532Q621 552 608 582T573 641T519 689T440 709Q395 709 356 688T285 632T226 550T183 454T156 354T146 261Q146 225 156 187T188 117T246 65T333 45Q380 45 417 61T485 103T537 155T576 206L598 192Q582 166 557 130T496 60T412 4T302 -20Q250 -20 204 1T124 60T69 153T49 273Q49 328 64 384T106 493T170 590T250 669T340 722T437 741Q464 741 487 736T539 718Q559 710 566 709T578 708Q597 708 610 714T632 727L654 535Z"  />
<glyph unicode="D" horiz-adv-x="677" d="M367 721Q460 721 521 695T619 628T671 535T687 433Q687 399 678 348T641 242T566 133T439 41Q407 25 377 17T308 5T217 1T89 0H-36L-26 28H3Q56 28 75 95L223 635Q226 642 226 655Q226 669 218 676T197 687T165 692T125 693L132 721H367ZM161 104Q159 99 157 88T155 64Q155 44 171 36T225 28Q290 28 336 41T416 76T471 124T510 177Q529 209 545 247T573 327T591 409T598 487Q598 524 588 560T554 626T492 674T399 693Q361 693 339 681T307 635L161 104Z"  />
<glyph unicode="E" horiz-adv-x="625" d="M658 721L687 537L661 531Q643 572 623 602T576 653T513 683T425 693Q396 693 375 691T340 682T317 661T300 622L235 386H284Q337 386 371 394T426 416T460 452T481 499H509L432 216H404Q411 241 412 251T413 270Q413 295 405 311T383 338T349 353T308 358H228L153 84Q150 76 150 66Q150 42 174 35T244 28Q286 28 329 30T415 48T504 95T596 186L620 173L533 0H-38L-29 28Q-8 28 8 29T36 38T58 62T76 109L216 619Q218 625 220 634T222 655Q222 682 198 686T135 692L144 721H658Z"  />
<glyph unicode="F" horiz-adv-x="583" d="M627 721L655 537L627 532Q618 555 605 583T566 635T501 676T399 693Q385 693 369 692T339 685T313 668T296 637L227 385H285Q327 385 357 394T407 419T439 455T458 499H487L411 217H381Q385 229 387 241T390 271Q390 309 366 333T290 357H220L148 93Q145 82 145 68Q145 53 152 45T171 33T202 29T242 28L234 0H-37L-28 28Q-11 29 3 30T30 38T51 56T66 93L209 622Q214 635 214 656Q214 683 191 687T126 693L134 721H627Z"  />
<glyph unicode="G" horiz-adv-x="656" d="M664 534L637 530Q631 548 619 578T585 637T529 688T446 709Q409 709 376 696T315 659T262 603T219 533Q200 495 185 454T160 372T145 289T140 211Q140 188 145 154T166 89T213 35T297 12Q341 12 373 26T427 61T462 109T482 159T492 201T495 226Q495 239 487 246T467 256T441 261T412 262L419 290H664L656 262Q633 261 619 256T594 240T577 209T562 160L524 20Q507 20 494 20T468 17T437 10T396 -2Q377 -8 364 -12T339 -17T319 -19T299 -20Q233 -20 186 7T109 77T65 169T51 267Q51 321 63 372T97 470T148 557T211 631Q250 669 284 691T347 724T399 738T440 741Q459 741 481 738T542 718Q566 708 575 707T589 706Q603 706 615 711T643 725L664 534Z"  />
<glyph unicode="H" horiz-adv-x="719" d="M418 721L410 693H388Q359 693 337 679T306 632L240 390H562L627 625Q628 630 629 638T631 656Q631 668 625 675T608 686T585 691T562 693H540L547 721H820L812 693H794Q769 693 746 682T711 632L565 102Q563 96 561 86T559 64Q559 42 579 35T629 28H644L636 0H368L375 28H390Q419 28 443 38T476 81L552 354H229L158 90Q156 85 155 79T154 65Q154 45 171 37T224 28H242L235 0H-31L-23 28Q-6 29 9 30T36 37T58 55T74 90L217 606Q218 611 221 627T225 659Q225 670 219 676T203 687T182 692T158 693H142L149 721H418Z"  />
<glyph unicode="I" horiz-adv-x="313" d="M412 721L404 693H385Q356 693 334 680T301 629L162 122Q161 120 160 113T156 98T153 82T151 67Q151 48 164 38T216 28H236L229 0H-28L-21 28Q-9 28 4 29T30 35T53 51T69 84L219 629Q221 634 222 641T223 655Q223 677 205 685T158 693H132L140 721H412Z"  />
<glyph unicode="J" horiz-adv-x="323" d="M424 721L416 693Q398 692 382 691T352 683T328 664T311 628L165 99Q157 69 147 38T122 -23T91 -80T52 -129Q26 -155 -7 -169T-67 -184Q-93 -184 -115 -170T-138 -126Q-138 -106 -125 -92T-89 -77Q-69 -77 -59 -87T-41 -114Q-34 -128 -29 -132T-17 -137Q-5 -137 6 -123T26 -88T42 -46T53 -8L225 619Q227 624 229 635T231 657Q231 670 223 677T202 687T174 692T144 693L151 721H424Z"  />
<glyph unicode="K" horiz-adv-x="719" d="M409 721L401 693H379Q350 693 328 681T295 633L211 323L213 321L551 616Q554 619 565 631T577 660Q577 676 564 684T528 693H505L514 721H772L764 693Q752 692 737 691T703 683T662 663T614 628L401 444L523 119Q535 89 546 72T571 45T605 32T653 28L646 0H355L362 28Q376 28 392 29T422 34T445 46T454 68Q454 76 452 82T449 92L336 389L194 266L149 101Q147 94 146 85T144 64Q144 44 162 36T214 28H235L228 0H-45L-37 28H-16Q8 28 30 39T63 86L211 630Q212 635 213 641T214 655Q214 693 145 693H128L136 721H409Z"  />
<glyph unicode="L" horiz-adv-x="573" d="M413 721L406 693H382Q347 693 326 679T294 625L151 108Q150 103 147 90T144 63Q144 50 154 43T176 33T202 29T221 28Q283 28 329 38T412 68T480 118T546 188L570 174L480 0H-37L-27 28Q-16 28 -3 29T23 35T46 52T62 85L213 631Q216 641 216 653Q216 675 201 684T165 693H141L148 721H413Z"  />
<glyph unicode="M" horiz-adv-x="875" d="M360 721L405 136H407L772 721H973L966 693Q950 693 935 692T907 683T882 662T863 621L718 89Q716 84 715 79T714 65Q714 51 721 44T739 34T765 29T795 28L786 0H522L531 28Q543 28 558 28T587 34T614 49T632 79L804 703L802 705L357 -10H337L282 703H280L125 156Q121 142 118 124T114 86Q114 66 123 55T144 38T171 31T198 28L190 0H-31L-22 28Q-2 29 14 34T43 50T66 81T85 132L225 635Q227 645 227 655Q227 669 219 676T199 687T172 692T142 693L149 721H360Z"  />
<glyph unicode="N" horiz-adv-x="698" d="M290 721L525 133H527L649 579Q651 588 653 602T656 632Q656 654 648 666T626 684T599 691T575 693L582 721H798L792 693Q766 691 748 681T719 658T701 630T692 604L520 -20H503L247 617H245L118 156Q114 144 111 125T107 86Q107 65 117 54T141 37T172 30T201 28L193 0H-41L-32 28Q-11 29 4 32T33 47T56 81T76 139L205 604Q207 612 209 623T212 647Q212 663 204 672T183 686T156 692T132 693L141 721H290Z"  />
<glyph unicode="O" horiz-adv-x="698" d="M433 741Q503 741 554 713T639 642T689 548T705 449Q705 396 691 341T650 233T588 135T508 55T414 0T312 -20Q257 -20 209 2T126 65T71 158T50 275Q50 369 85 449T173 593Q214 642 251 671T322 716T383 736T433 741ZM440 709Q403 709 371 696T310 659T259 603T216 533Q197 495 183 453T159 369T144 285T139 208Q139 188 143 155T165 90T216 35T308 12Q347 12 378 23T434 52T477 93T511 140Q527 167 545 207T579 297T605 402T616 513Q616 521 615 538T608 578T592 623T562 667Q536 694 502 701T440 709Z"  />
<glyph unicode="P" horiz-adv-x="573" d="M391 721Q436 721 479 716T557 693T613 645T635 561Q635 520 623 487T591 429T548 386T501 359Q481 350 463 346T417 339T344 337T225 337L160 96Q155 84 155 65Q155 38 178 34T244 28L237 0H-21L-12 28Q0 29 12 30T36 37T56 53T71 82L222 627Q224 632 225 639T227 656Q227 669 220 676T202 687T175 692T145 693L152 721H391ZM233 365H333Q393 365 426 375T479 405Q490 416 502 435T523 479T539 531T546 589Q546 623 534 643T502 675T457 689T404 693Q372 693 346 685T309 642L233 365Z"  />
<glyph unicode="Q" horiz-adv-x="698" d="M595 -28Q581 -62 563 -83T526 -115T489 -131T459 -135Q434 -135 410 -124T370 -90Q356 -70 352 -52T346 -17Q341 -18 337 -18T328 -19Q323 -20 319 -20T309 -20Q258 -20 211 1T129 62T72 155T50 275Q50 380 95 473T215 640Q250 675 282 695T343 726T394 738T436 741Q502 741 552 715T636 646T687 552T705 449Q705 381 684 314T625 188T537 81T431 4Q432 -4 436 -17T447 -44T467 -68T498 -78Q522 -78 539 -60T572 -16L595 -28ZM421 42Q469 75 505 133T566 258T603 393T616 513Q616 526 612 558T592 624T541 683T447 709Q399 709 363 693T304 656Q279 635 250 592T197 489T156 360T139 217Q139 197 141 177T152 124H154Q156 134 161 151T178 185T213 214T270 227Q315 227 343 208T387 160T410 100T421 42ZM346 16Q347 24 348 45T350 87Q350 99 348 117T337 151T313 180T268 192Q244 192 227 184T198 162T181 133T175 102Q175 76 189 59T224 32T266 17T306 12Q318 12 328 13T346 16Z"  />
<glyph unicode="R" horiz-adv-x="625" d="M379 721Q398 721 425 720T481 715T538 701T590 673T627 628T641 562Q641 518 621 476T555 404Q535 391 514 383T471 370T430 361T394 356L468 98Q475 74 483 61T502 40T530 31T571 28L562 0H413L312 356H221L148 85Q145 77 145 64Q145 51 152 44T171 34T198 29T229 28L219 0H-35L-26 28Q-10 28 4 29T30 38T51 58T68 98L213 630Q215 635 216 642T217 657Q217 670 211 677T193 687T166 692T135 693L142 721H379ZM229 384H335Q353 384 373 386T414 393T452 407T486 431Q496 441 507 457T528 495T543 540T549 592Q549 649 508 671T392 693Q357 693 333 683T298 636L229 384Z"  />
<glyph unicode="S" horiz-adv-x="552" d="M586 535L559 532Q530 616 485 663T369 711Q336 711 307 700T257 670T224 626T212 574Q212 547 222 527T251 489T295 458T350 429Q392 408 424 387T478 342T511 288T523 220Q523 176 508 133T463 56T392 1T297 -20Q275 -20 252 -15T189 10Q161 23 150 25T131 28Q114 28 101 23T63 6L41 203L69 206Q80 178 94 150T137 89Q169 55 208 35T296 14Q334 14 364 27T416 63T448 115T460 176Q460 209 449 232T415 276T361 314T287 354Q257 369 232 386T189 425T161 472T151 531Q151 577 168 615T216 682T286 725T371 741Q388 741 407 738T462 721Q466 719 482 714T510 709Q517 709 525 711T542 717T556 723T565 727L586 535Z"  />
<glyph unicode="T" horiz-adv-x="688" d="M738 721L755 540L728 538Q717 571 707 592T678 637Q656 663 629 678T567 693Q551 693 540 690T519 677T503 652T490 612L349 104Q347 97 345 86T343 64Q343 51 350 44T370 34T401 29T443 28L434 0H137L147 28Q174 28 193 29T226 36T249 57T265 98L411 628Q413 633 414 641T415 657Q415 680 402 686T378 693Q345 693 309 677T238 638T172 588T117 540L95 556L203 721H738Z"  />
<glyph unicode="U" horiz-adv-x="719" d="M411 721L404 693H381Q357 693 342 688T317 674T301 651T291 622L191 261Q183 230 180 207T177 166Q177 135 186 108T215 61T263 29T334 17Q392 17 431 35T498 86T542 162T574 257L667 595Q669 602 671 611T673 633Q673 654 663 666T639 684T608 691T580 693L588 721H813L806 693Q789 692 774 688T746 673T722 641T702 587L603 231Q588 178 568 132T515 53T437 0T325 -20Q279 -20 238 -9T167 27T118 89T100 177Q100 218 105 243T118 297L200 591Q202 599 207 621T213 661Q213 672 206 678T187 688T160 692T130 693L138 721H411Z"  />
<glyph unicode="V" horiz-adv-x="688" d="M401 721L392 693Q380 693 364 692T333 685T308 668T299 635L329 123H331L634 625Q636 628 640 637T645 657Q645 670 636 677T613 687T587 692T564 693L573 721H796L788 693Q745 691 717 669T667 611L285 -20H262L226 586Q224 624 216 645T196 677T166 690T126 693L136 721H401Z"  />
<glyph unicode="W" horiz-adv-x="927" d="M386 721L378 693Q366 693 351 692T322 684T299 667T289 634L284 155L286 153L544 611Q544 623 543 637T534 663T510 684T464 693H445L453 721H722L714 693Q697 693 680 691T650 683T629 663T621 627L619 158L621 156L880 616Q882 619 887 631T893 657Q893 669 885 676T865 686T840 691T818 693L824 721H1037L1029 693Q991 688 964 667T919 614L563 -20H544V535H542L231 -20H208L211 582Q211 615 208 636T194 670T164 687T115 693L122 721H386Z"  />
<glyph unicode="X" horiz-adv-x="656" d="M402 721L396 693Q382 693 368 692T341 687T322 675T314 652Q314 641 316 632T321 618L389 423L547 595Q549 597 555 604T567 620T579 639T584 659Q584 671 577 677T559 687T539 692T521 693L529 721H740L735 693Q718 691 701 683T668 665T642 646T627 631L402 385L502 99Q511 74 522 60T547 39T578 30T617 28L606 0H336L344 28Q361 28 376 29T402 33T421 44T428 65Q428 77 425 88T420 103L344 322L156 116Q154 114 149 109T139 96T130 79T126 61Q126 50 132 44T149 34T170 29T190 28L183 0H-48L-40 28Q-19 30 0 36T34 52T60 70T77 85L330 360L258 566Q242 611 230 636T205 674T175 690T132 693L141 721H402Z"  />
<glyph unicode="Y" horiz-adv-x="677" d="M391 721L383 693Q362 693 346 692T317 687T299 674T292 649Q292 632 295 616T301 592L369 329L599 607Q607 617 614 630T622 655Q622 668 614 675T595 687T571 692T552 693L561 721H784L778 693Q753 691 733 682T697 662T670 638T653 619L386 295L332 98Q330 92 329 83T327 63Q327 50 334 43T354 33T384 29T421 28L412 0H125L133 28Q158 28 176 29T207 36T230 55T247 93L301 284L229 560Q217 606 208 632T187 672T159 688T115 693L122 721H391Z"  />
<glyph unicode="Z" horiz-adv-x="531" d="M632 721V696L82 28H216Q274 28 320 46T401 89T460 141T500 186L525 174L436 0H-23V24L532 693H403Q377 693 344 685T275 660Q225 636 193 608T126 540L103 552L188 721H632Z"  />
<glyph unicode="[" horiz-adv-x="323" d="M440 737L431 701H288L59 -148H201L191 -184H-18L233 737H440Z"  />
<glyph unicode="\" horiz-adv-x="281" d="M235 -16H185L102 721H152L235 -16Z"  />
<glyph unicode="]" horiz-adv-x="323" d="M-117 -184L-108 -148H35L264 701H122L132 737H341L90 -184H-117Z"  />
<glyph unicode="^" horiz-adv-x="427" d="M462 371H411L246 647L81 371H29L240 721H254L462 371Z"  />
<glyph unicode="_" horiz-adv-x="500" d="M-6 -125V-75H506V-125H-6Z"  />
<glyph unicode="`" horiz-adv-x="333" d="M378 532H362L217 676H308L378 532Z"  />
<glyph unicode="a" horiz-adv-x="490" d="M397 468H461L338 119Q335 110 330 91T325 53Q325 47 327 40T338 33Q350 33 363 43T391 70T418 105T445 143L464 130Q451 110 434 85T396 37T352 -1T304 -16Q259 -16 259 39Q259 53 260 69T263 97L261 99Q246 76 230 55T196 19T158 -6T113 -16Q86 -16 67 -6T36 22T18 60T12 102Q12 167 39 234T109 357T201 448T299 484Q318 484 332 479T355 464T370 445T381 426L397 468ZM129 18Q155 18 182 40T235 96T283 174T321 259T347 337T357 396Q357 397 356 406T350 425T333 444T302 452Q275 452 248 432T197 380T152 306T116 223T92 142T83 73Q83 46 97 32T129 18Z"  />
<glyph unicode="b" horiz-adv-x="458" d="M259 737H273L176 393L178 391Q191 409 204 426T232 455T267 476T313 484Q342 484 362 472T396 441T416 396T423 344Q423 273 398 208T332 94T241 14T140 -16Q91 -16 63 12T34 83Q34 95 35 104T39 127T47 162T63 219L171 605Q173 611 174 619T176 637Q176 649 170 656T153 668T131 674T108 677L114 705L259 737ZM158 16Q193 16 221 36T270 88T307 159T333 238T347 311T352 367Q352 372 351 385T343 413T325 437T291 448Q265 448 244 433T204 394T170 337T143 272Q131 238 123 205T108 145T99 100T96 77Q96 71 98 61T107 40T126 23T158 16Z"  />
<glyph unicode="c" horiz-adv-x="375" d="M329 114Q314 93 296 71T255 29T205 -3T146 -16Q115 -16 91 -4T51 29T27 76T18 132Q18 193 40 255T100 369T185 452T284 484Q323 484 349 465T376 415Q376 396 365 381T330 366Q301 366 296 383T290 425Q289 434 285 445T263 456Q239 456 217 437T175 386T140 315T113 235T95 157T89 93Q89 54 107 35T151 16Q174 16 194 25T234 49T272 85T311 128L329 114Z"  />
<glyph unicode="d" horiz-adv-x="500" d="M517 737H530L367 129Q363 116 358 93T353 57Q353 55 356 46T371 36Q383 36 398 51T427 85T453 124T470 153L488 144Q462 87 436 55T389 7T353 -12T334 -16Q317 -16 308 -8T294 11T288 32T287 49Q287 59 288 71T296 113L294 115Q282 95 266 72T230 30T186 -3T131 -16Q103 -16 83 -4T49 27T30 70T23 118Q23 181 50 246T118 364T209 450T304 484Q331 484 348 475T387 445L433 613Q435 618 436 625T437 639Q437 652 431 659T414 671T390 678T364 682L373 708L517 737ZM310 456Q277 456 249 436T196 384T153 311T121 231T101 155T94 96Q94 90 95 77T103 52T120 30T152 20Q181 20 208 43T260 101T303 181T337 266T358 342T366 394Q366 421 350 438T310 456Z"  />
<glyph unicode="e" horiz-adv-x="406" d="M352 125Q331 100 308 75T257 30T200 -3T137 -16Q105 -16 82 -3T45 32T23 79T16 129Q16 189 41 252T107 366T196 451T294 484Q305 484 320 481T348 469T370 446T379 408Q379 374 363 344T321 288T264 240T200 201T140 172T94 151Q93 145 92 131T90 102Q90 91 93 77T103 50T124 29T157 20Q185 20 212 34T262 67T304 107T334 141L352 125ZM97 176Q124 189 163 209T239 258T301 324T327 407Q327 411 326 419T320 436T307 450T283 456Q268 456 246 446T198 405T146 319T97 176Z"  />
<glyph unicode="f" horiz-adv-x="323" d="M352 468L343 431L231 433Q228 420 221 390T207 325T192 260T182 219Q157 124 130 57T76 -54T24 -125T-22 -164T-58 -180T-80 -184Q-103 -184 -114 -172T-126 -146Q-126 -136 -117 -122T-84 -107Q-81 -107 -74 -108T-59 -110T-45 -112T-35 -113Q-7 -113 13 -94T47 -40T73 39T95 135Q104 176 112 210T129 279T148 351T172 433L78 431L88 468L183 466Q199 526 223 576T277 662T342 717T413 737Q422 737 431 735T448 729T461 716T466 695Q466 676 454 667T425 657Q417 657 409 659T386 670Q372 678 366 679T355 681Q338 681 321 665T289 619T261 550T237 466L352 468Z"  />
<glyph unicode="g" horiz-adv-x="479" d="M367 456Q390 476 413 492T463 508Q466 508 473 507T487 503T500 492T506 473Q506 456 495 446T467 435Q458 435 451 437T433 445Q431 446 425 448T412 451Q411 451 403 450T387 440Q400 425 407 410T417 382T420 360T421 346Q421 314 407 280T365 216T299 167T211 148Q188 148 174 151T147 159Q112 143 96 130T79 109Q79 101 87 96T108 86T132 80T153 76Q205 66 245 55T313 27T355 -10T370 -59Q370 -114 313 -149T149 -184Q137 -184 117 -183T72 -179T23 -170T-22 -153T-55 -126T-68 -86Q-68 -79 -65 -65T-46 -34T5 -1T104 25V27Q72 34 52 39T20 49T4 59T-1 74Q-1 88 10 101T40 126T80 149T124 170Q116 176 106 185T87 208T72 240T66 285Q66 331 86 368T138 430T206 470T274 484Q277 484 286 484T307 481T335 472T367 456ZM209 173Q238 173 259 187T297 222T323 268T339 317T347 359T350 384Q350 391 348 403T338 427T316 447T278 456Q239 456 213 432T169 374T145 304T137 245Q137 225 143 211T160 189T184 177T209 173ZM141 17Q119 10 94 2T48 -19T12 -47T-2 -85Q-2 -112 16 -126T60 -147T109 -155T144 -156Q166 -156 194 -154T248 -143T290 -119T307 -75Q307 -55 294 -41T259 -17T206 1T141 17Z"  />
<glyph unicode="h" horiz-adv-x="500" d="M268 737H282L118 141L120 139Q154 205 188 267T257 377T324 455T391 484Q407 484 419 478T439 461T451 437T455 411Q455 392 450 371T439 334L356 99Q354 94 351 82T348 57Q348 52 350 42T364 32Q376 32 390 44T420 74T448 110T471 143L489 128Q480 114 464 90T426 43T380 2T330 -16Q315 -16 306 -11T290 4T282 24T280 45Q280 63 283 78T291 104L374 334Q382 357 387 377T392 408Q392 419 385 428T365 438Q350 438 333 425T298 391T263 346T233 301Q221 282 202 252T161 182T119 96T80 0H16L184 615Q187 624 187 637Q187 650 180 658T163 670T141 675T118 677L126 706L268 737Z"  />
<glyph unicode="i" horiz-adv-x="250" d="M101 126Q96 113 90 92T84 58Q84 51 87 43T101 34Q113 34 129 49T160 84T188 121T204 144L225 132Q212 111 195 86T157 38T113 0T67 -16Q44 -16 29 0T13 45Q13 60 17 74T23 95L125 390Q127 395 128 400T129 413Q129 424 125 430T116 436Q107 436 95 425T69 397T42 361T17 326L-1 338Q14 361 32 386T69 434T110 470T152 484Q167 484 176 478T189 463T195 446T197 434Q197 413 193 395T183 364L101 126ZM215 737Q238 737 251 723T265 689Q265 669 251 655T216 640Q196 640 182 654T168 689Q168 707 181 722T215 737Z"  />
<glyph unicode="j" horiz-adv-x="271" d="M118 36Q102 -21 79 -62T29 -131T-24 -171T-72 -184Q-89 -184 -107 -173T-126 -138Q-126 -124 -116 -111T-82 -97Q-67 -97 -59 -102T-41 -118Q-33 -128 -29 -130T-19 -132Q-9 -132 0 -117T18 -80T33 -36T44 0L144 368Q145 371 148 385T152 410Q152 413 150 422T137 432Q128 432 119 426T98 407T71 372T33 320L14 334Q32 361 51 388T91 436T133 471T178 484Q206 484 214 468T223 434Q223 418 218 397T211 368L118 36ZM226 737Q245 737 259 724T274 689Q274 669 260 655T225 640Q205 640 191 654T177 688Q177 710 192 723T226 737Z"  />
<glyph unicode="k" horiz-adv-x="448" d="M258 737H273L164 346H167Q186 371 207 395T252 439T303 471T362 484Q383 484 397 477T421 459T434 435T439 409Q439 398 435 377T413 329T361 274T268 221L289 100Q290 92 293 81T300 59T309 41T323 34Q332 34 340 42T357 63T374 93T391 129L410 120Q405 107 395 85T369 40T335 1T294 -16Q278 -16 268 -7T250 18T237 50T229 82Q227 89 225 106T219 143T213 179T209 202Q198 200 172 194T119 186L67 0H2L164 577Q169 594 171 604T175 620T177 630T178 638Q178 650 172 657T156 668T134 674T108 678L115 705L258 737ZM124 203Q158 205 203 220T289 259T358 316T387 383Q387 403 373 419T333 436Q302 436 268 412T205 353Q189 334 178 318T159 285T142 249T124 203Z"  />
<glyph unicode="l" horiz-adv-x="208" d="M245 737H259L94 167Q93 162 90 152T83 130T76 108T72 94Q65 72 65 53Q65 48 67 40T79 32Q91 32 108 46T140 80T169 117T187 142L203 128Q189 107 172 82T135 35T93 -1T46 -16Q31 -16 22 -11T8 3T1 20T-1 36Q-1 47 1 59T8 91L158 610Q161 620 161 635Q161 648 154 656T137 668T115 674T94 676L101 704L245 737Z"  />
<glyph unicode="m" horiz-adv-x="792" d="M764 129Q716 57 682 21T610 -16Q595 -16 585 -10T569 5T561 24T558 43Q558 51 558 57T562 74T572 105T591 160L661 364Q663 372 665 382T668 405Q668 417 662 426T643 436Q617 436 598 414T552 346Q518 290 493 249T450 178T418 125T393 83T370 44T345 0H276L401 357Q405 368 407 380T410 405Q410 415 405 425T386 436Q372 436 359 428T330 402T295 356T252 285L86 0H20L131 325Q134 333 138 345T145 369T150 392T153 411Q153 414 152 422T141 431Q133 431 120 420T92 391T61 352T30 310L11 322Q23 341 42 369T83 422T129 466T176 484Q190 484 199 478T213 463T221 443T224 422Q224 404 220 389T213 364L131 124L133 122Q148 149 171 190T220 275T269 357T310 419Q315 426 324 437T346 458T376 476T413 484Q432 484 444 477T464 458T475 436T478 417Q478 415 477 397T467 355L393 133L395 131L481 280Q515 339 539 378T584 441T625 474T670 484Q689 484 701 477T721 460T731 437T734 414Q734 391 728 370T719 339L646 124Q645 121 642 113T636 94T631 73T629 55Q629 47 631 41T643 34Q655 34 671 48T702 81T729 117T745 141L764 129Z"  />
<glyph unicode="n" horiz-adv-x="531" d="M503 131Q485 98 466 71T427 25T388 -5T350 -16Q333 -16 324 -10T309 5T303 23T301 37Q301 49 304 69T316 115L391 333Q396 347 402 369T408 406Q408 418 404 427T384 436Q370 436 354 425T323 396T294 361T272 328Q268 322 254 299T221 243T180 174T138 102T102 41T79 0H12L126 326Q128 332 131 343T138 367T144 393T147 417Q147 424 144 429T136 434Q129 434 123 430T115 424Q109 418 102 411T86 391T61 360T23 312L6 324Q21 347 41 375T82 427T126 467T169 484Q192 484 205 467T218 429Q218 404 206 367T178 284Q165 248 152 211T122 122L124 120Q128 127 136 141T155 174T177 213T199 251T218 283T231 304Q256 345 278 378T322 434T365 471T410 484Q443 484 458 461T474 409Q474 391 470 375T462 350L384 120Q376 96 373 81T369 55Q369 48 372 41T384 34Q395 34 407 44T433 71T460 106T485 143L503 131Z"  />
<glyph unicode="o" horiz-adv-x="469" d="M293 484Q312 484 335 474T378 444T411 395T424 325Q424 266 402 206T344 96T262 15T165 -16Q129 -16 103 -1T60 38T34 90T26 145Q26 200 47 259T106 369T191 451T293 484ZM283 456Q247 456 219 433T170 373T134 294T110 210T96 139T92 95Q92 62 109 37T168 12Q204 12 232 36T282 97T317 178T341 263T354 333T358 372Q358 410 338 433T283 456Z"  />
<glyph unicode="p" horiz-adv-x="479" d="M263 625L221 470Q241 477 258 480Q274 484 296 484Q334 484 360 470T403 433T427 383T435 329Q435 266 411 204T346 94T253 15T144 -16Q136 -16 125 -15T88 -8L64 -96Q63 -101 62 -106T61 -119Q61 -132 68 -139T85 -150T106 -155T127 -156L119 -184H-91L-85 -156Q-75 -156 -63 -155T-40 -147T-18 -129T-2 -96L136 400L134 402Q114 387 100 377T76 358T56 344T34 328L21 345Q56 380 85 400T147 440L198 625H263ZM97 20Q101 18 114 15T139 12Q147 12 162 15T196 27T234 50T271 85Q279 95 294 117T324 170T350 242T361 327Q361 336 359 356T346 397T316 432T262 448Q255 448 246 447T213 441L97 20Z"  />
<glyph unicode="q" horiz-adv-x="490" d="M456 484L299 -81Q297 -88 296 -98T294 -120Q294 -133 300 -140T314 -150T332 -155T350 -156L341 -184H123L131 -156Q159 -155 176 -152T205 -138T223 -111T238 -65L288 115L286 117Q244 54 207 19T120 -16Q91 -16 71 -4T38 28T20 69T14 113Q14 155 26 199T58 284T106 362T165 425T229 468T295 484Q329 484 348 469T383 438Q400 446 416 459T443 484H456ZM142 20Q168 20 194 41T244 95T288 171T324 254T347 331T356 390Q356 394 355 404T348 425T331 444T298 452Q268 452 241 433T190 383T147 313T114 234T93 157T85 92Q85 86 86 74T93 50T110 29T142 20Z"  />
<glyph unicode="r" horiz-adv-x="396" d="M85 0H19L138 343Q143 357 148 377T153 415Q153 418 152 426T142 435Q122 435 98 404T34 314L14 326Q23 341 40 367T79 420T124 465T171 484Q186 484 195 478T208 461T214 441T216 422Q216 396 211 373T202 338L142 160L144 158Q149 168 160 187T186 231T215 283T245 334T270 376T287 404Q296 417 306 431T327 457T351 476T377 484Q391 484 405 475T419 442Q419 428 409 411T362 388Q347 386 337 384T317 378T298 365T278 341Q278 340 266 322T233 273T188 198T138 105L85 0Z"  />
<glyph unicode="s" horiz-adv-x="385" d="M267 231Q293 201 299 176T306 134Q306 103 295 76T261 28T208 -4T137 -16Q107 -16 81 -9T36 11T5 41T-6 80Q-6 100 7 112T38 124Q54 124 63 115T79 78Q87 47 102 30T152 12Q176 12 194 20T225 40T245 68T252 98Q252 135 232 160T170 213Q152 225 136 238T106 268T86 303T78 348Q78 376 88 401T118 444T165 473T228 484Q253 484 276 478T317 461T346 433T357 397Q357 383 348 370T316 357Q300 357 291 366T273 401Q265 430 253 443T214 456Q192 456 176 448T150 428T135 403T130 378Q130 353 145 335T177 302Q182 297 195 288T223 267T250 245T267 231Z"  />
<glyph unicode="t" horiz-adv-x="302" d="M272 657L219 466H330L321 434H210L123 117Q116 93 114 81T111 60Q111 55 114 44T131 32Q143 32 159 47T191 81T219 118T235 142L254 130Q244 114 228 90T190 42T145 1T93 -16Q76 -16 67 -10T53 4T47 22T45 37Q45 59 49 79T59 121L145 434H57L66 466H154L206 657H272Z"  />
<glyph unicode="u" horiz-adv-x="521" d="M114 116Q112 111 107 94T102 62Q102 60 102 55T105 45T111 36T125 32Q135 32 148 41T172 62T191 85T203 99Q206 104 220 127T255 183T300 257T347 337T389 411T420 468H488L386 182Q382 172 376 154T364 117T354 81T350 55Q350 50 352 41T367 32Q370 32 378 36T399 52T430 85T471 142L490 129Q477 108 460 83T422 36T379 -1T332 -16Q315 -16 306 -9T293 7T288 25T287 38Q287 54 293 88T314 164L373 334L371 336L300 206Q295 196 281 173T249 122T214 69T184 31Q164 10 143 -3T99 -16Q66 -16 53 6T39 56Q39 76 43 94T52 124L136 364Q142 380 145 389T150 404T152 413T153 420Q153 425 150 429T142 434Q134 434 121 422T94 392T66 354T41 317L23 330Q38 354 56 381T93 431T134 469T177 484Q201 484 210 468T219 437Q219 417 215 401T208 378L114 116Z"  />
<glyph unicode="v" horiz-adv-x="438" d="M128 148Q127 145 125 138T121 121T116 100T114 79Q114 70 115 61T122 44T136 32T159 27Q185 27 211 43T260 86T303 146T337 212T360 275T368 325Q368 339 363 355T347 391Q343 399 336 414T329 444Q329 460 339 472T369 484Q386 484 396 475T410 453T416 428T417 412Q417 388 412 355T394 281T361 197T311 109Q267 46 226 15T137 -16Q100 -16 73 6T46 76Q46 98 51 117T59 148L131 354Q137 373 141 384T147 401T149 412T150 420Q150 432 139 432Q129 432 119 424T95 399Q90 394 81 381T61 352T41 324T27 306L7 319Q21 340 40 368T81 422T125 466T169 484Q193 484 203 469T213 433Q213 410 208 390T199 360L128 148Z"  />
<glyph unicode="w" horiz-adv-x="656" d="M134 346Q140 364 144 376T151 396T154 410T155 421Q155 426 153 430T145 434Q141 434 136 432T119 419T88 382T35 310L16 324Q46 368 68 398T109 448T143 475T173 484Q187 484 196 478T210 464T216 446T218 429Q218 406 214 387T203 351L118 109Q116 101 113 88T109 61Q109 56 113 45T136 33Q156 33 180 57T230 121T281 208T329 305T369 397T398 468H464Q452 428 438 377T412 274T391 176T382 100Q382 92 383 81T387 59T398 40T418 32Q435 32 454 47T491 88T527 146T558 211T579 274T587 327Q587 334 585 342T579 359T573 373T568 382Q556 403 552 418T548 445Q548 466 559 475T586 484Q604 484 613 475T627 453T633 429T634 413Q634 385 626 342T601 252T563 156T515 70T459 8T396 -16Q360 -16 338 12T316 88Q316 147 333 218L352 298L350 300Q322 239 294 182T235 81T173 11T106 -16Q72 -16 58 4T43 51Q43 79 50 104T61 140L134 346Z"  />
<glyph unicode="x" horiz-adv-x="469" d="M418 136Q398 90 380 61T345 14T314 -9T290 -16Q270 -16 259 -1T240 43Q238 51 235 71T228 115T222 158T218 187H216Q191 146 172 116T138 63T111 25T87 1Q66 -16 37 -16Q8 -16 -3 -3T-15 26Q-15 46 -1 59T37 72Q40 72 46 72T58 70T71 69T79 68Q96 68 110 79T138 111Q161 143 181 175T211 224Q209 235 205 262T196 320T187 376T179 413Q177 417 174 422T166 428Q156 428 146 415T129 389Q120 374 109 352T89 315L68 325Q81 352 95 380T126 432T161 469T201 484Q221 484 228 469Q233 460 236 447T244 415T252 370T261 306Q298 365 320 400T359 454T388 478T420 484Q447 484 458 469T469 441Q469 429 463 421T449 407T431 400T414 398Q410 398 398 399T381 400Q358 400 348 391T321 357Q318 352 310 340T294 313T278 287T267 269Q267 265 270 249T276 210T284 162T292 115T300 77T305 57Q306 55 310 49T320 42Q329 42 337 49T347 60Q351 65 358 77T374 103T388 129T398 146L418 136Z"  />
<glyph unicode="y" horiz-adv-x="417" d="M227 79Q243 103 263 138T301 209T331 277T343 330Q343 339 341 352T324 391Q314 409 313 417T311 433Q311 450 321 467T352 484Q368 484 377 477T392 459T398 438T400 424Q400 386 382 330T334 213T268 90T193 -21Q181 -37 157 -64T100 -118T30 -164T-47 -184Q-54 -184 -63 -182T-79 -175T-92 -161T-98 -139Q-98 -116 -82 -107T-48 -97Q-43 -97 -39 -97T-28 -100Q-8 -106 8 -111T32 -116Q51 -116 69 -106T106 -79T141 -41T174 0L128 312Q127 319 125 333T121 364T116 393T113 411Q111 414 108 420T99 427Q91 427 82 415T64 385T47 350T34 320L14 328Q20 345 30 371T55 423T88 466T127 484Q153 484 162 463T178 402L227 79Z"  />
<glyph unicode="z" horiz-adv-x="375" d="M372 473Q364 434 346 396T305 325T253 263T197 216Q190 211 174 201T139 179T105 157T83 142Q60 125 46 107T17 69L19 67Q59 85 77 90T110 96Q118 96 126 95T145 90T167 77T195 53Q218 30 230 24T252 18Q258 18 264 21T270 33Q270 36 269 40T261 53Q253 64 251 71T248 86Q248 103 259 111T284 120Q304 120 313 105T323 70Q323 33 294 9T224 -16Q210 -16 195 -13T166 -5T140 5T122 13Q105 20 85 27T48 35Q32 35 21 29T1 15T-12 -2T-20 -16L-41 -4Q-20 60 6 105T64 185T130 246T204 297Q238 319 258 334T290 361T309 386T325 415L323 417Q299 402 278 399T249 395Q242 395 231 396T193 406Q189 407 174 411T145 415Q130 415 116 408T91 389T70 366T53 343L34 354Q43 368 57 390T91 433T134 469T185 484Q193 484 206 482T247 464Q271 451 281 449T298 447Q324 447 335 460T352 484L372 473Z"  />
<glyph unicode="{" horiz-adv-x="479" d="M410 720Q368 710 346 693T314 658T302 626T300 608Q300 585 304 560T311 528Q314 515 318 495T322 451Q322 429 314 405T289 359T244 316T177 282V280Q226 263 254 239T298 191T317 146T322 113Q322 91 318 70T311 37Q309 30 304 5T299 -44Q299 -61 309 -85T345 -128Q363 -142 379 -147T410 -156V-173Q363 -167 329 -147T271 -101T237 -44T226 15Q226 38 229 58T236 93Q237 96 239 105T243 125T246 148T248 170Q248 179 244 194T227 226T193 254T137 272V292Q171 296 192 309T226 338T243 369T248 394Q248 404 247 416T243 439T239 459T236 472Q233 486 230 506T226 550Q226 578 237 608T272 665T329 711T410 737V720H410Z"  />
<glyph unicode="|" horiz-adv-x="510" d="M279 737V-184H231V737H279Z"  />
<glyph unicode="}" horiz-adv-x="479" d="M86 737Q132 731 166 712T224 666T258 609T270 550Q270 527 267 507T260 472Q259 468 257 460T253 440T250 416T248 394Q248 385 252 370T269 338T303 309T359 292V272Q325 267 304 255T270 226T253 195T248 170Q248 160 249 148T253 125T257 105T260 93Q263 79 266 59T270 15Q270 -13 259 -43T225 -100T168 -147T86 -173V-156Q101 -152 117 -147T151 -128Q176 -109 186 -85T197 -44Q197 -21 192 4T185 37Q182 49 178 70T174 113Q174 125 178 146T198 191T241 239T319 280V282Q280 296 253 316T208 358T182 405T174 451Q174 474 178 494T185 528Q187 535 191 560T196 608Q196 612 195 626T183 657T150 692T86 720V737Z"  />
<glyph unicode="~" horiz-adv-x="667" d="M610 398Q609 363 599 335T572 287T534 257T489 246Q475 246 463 248T432 256T384 275T304 307Q281 316 265 322T236 331T216 335T200 336Q173 336 156 325T129 299T115 269T110 247H87Q90 299 107 329T145 375T183 395T204 399Q215 399 226 398T255 391T296 378T358 354Q396 339 418 330T455 316T477 310T497 308Q509 308 523 311T550 325T574 352T587 398H610Z"  />
<glyph unicode="&#xA0;" horiz-adv-x="266" />
<glyph unicode="&#xA1;" horiz-adv-x="229" d="M152 345Q143 311 130 262T105 157T82 40T69 -76Q68 -95 65 -114T55 -149T35 -174T1 -184Q-19 -184 -33 -171T-48 -132Q-48 -128 -48 -122T-44 -107T-36 -84T-19 -50Q35 54 66 154T124 345H152ZM183 455Q160 455 145 471T129 509Q129 532 144 547T183 563Q206 563 221 548T237 509Q237 487 222 471T183 455Z"  />
<glyph unicode="&#xA2;" horiz-adv-x="375" d="M140 18Q164 14 186 23T230 48T272 86T310 128L327 114Q313 94 294 70T251 26T196 -7T130 -15L81 -180H48L99 -8Q75 1 59 18T34 55T21 95T17 131Q17 185 34 241T83 346T155 430T244 479L320 735H352L278 484Q325 485 350 464T375 415Q375 396 364 381T328 366Q314 366 306 370T294 383T289 402T288 425Q288 433 285 442T269 454L140 18ZM235 448Q210 433 189 406T152 346T123 275T104 204T92 140T88 93Q88 63 96 50T111 31L235 448Z"  />
<glyph unicode="&#xA3;" horiz-adv-x="604" d="M445 309L438 277H294Q280 243 269 220T249 178T229 145T208 114Q240 99 283 83T374 66Q407 66 430 73T471 90T499 112T519 133H552Q522 77 490 47T430 1T380 -17T350 -20Q323 -20 298 -11T251 12T209 42T174 72Q164 61 149 46T116 16T76 -9T33 -20Q6 -20 -17 -3T-40 50Q-40 72 -30 89T-4 120T35 140T83 147Q109 147 132 142T165 133Q171 144 177 155T189 183T202 222T216 277H91L98 309H223Q246 390 269 453T327 570Q353 610 385 641T455 695T531 729T610 741Q629 741 647 737T679 726T703 707T712 680Q712 660 697 644T657 628Q644 628 631 634T599 667Q582 693 570 699T546 705Q531 705 514 699T477 678T440 638T404 575Q392 549 380 517T355 450T330 379T306 309H445ZM144 93Q130 100 106 108T62 117Q47 117 34 112T12 97T-4 77T-10 55Q-10 38 2 26T31 14Q35 14 46 15T74 25T108 48T144 93Z"  />
<glyph unicode="&#xA4;" horiz-adv-x="490" d="M429 142L362 208Q306 166 245 166Q220 166 190 175T127 208L61 142L30 174L96 238Q57 296 57 354Q57 415 96 470L30 535L61 567L127 501Q161 525 190 533T245 542Q271 542 302 533T362 501L429 567L459 535L393 470Q416 438 425 409T434 354Q434 298 393 238L459 174L429 142ZM390 355Q390 387 378 413T345 459T299 488T245 499Q214 499 188 488T143 456T112 410T101 355Q101 325 112 299T143 253T189 222T245 210Q275 210 301 221T347 253T378 299T390 355Z"  />
<glyph unicode="&#xA5;" horiz-adv-x="677" d="M229 560Q217 606 208 632T187 672T159 688T115 693L122 721H391L383 693Q362 693 346 692T317 687T299 674T292 649Q292 632 295 616T301 592L369 329L599 607Q607 617 614 630T622 655Q622 668 614 675T595 687T571 692T552 693L561 721H784L778 693Q753 691 733 682T697 662T670 638T653 619L414 329H644L636 297H389L386 294L358 194H610L602 162H350L332 98Q330 92 329 83T327 63Q327 50 334 43T354 33T384 29T421 28L412 0H125L133 28Q158 28 176 29T207 36T230 55T247 93L266 162H21L29 194H275L301 284L297 297H55L62 329H289L229 560Z"  />
<glyph unicode="&#xA6;" horiz-adv-x="510" d="M279 169V-184H231V169H279ZM279 737V386H231V737H279Z"  />
<glyph unicode="&#xA7;" horiz-adv-x="510" d="M339 133Q346 127 355 119T373 99T387 69T393 27Q393 -17 372 -55T316 -122T236 -167T143 -184Q106 -184 75 -174T21 -145T-15 -103T-28 -49Q-28 -14 -9 12T41 39Q62 39 70 27T78 0Q78 -7 76 -16T59 -47Q57 -51 49 -64T41 -87Q41 -96 48 -108T68 -130T101 -147T145 -154Q175 -154 204 -143T257 -111T294 -63T309 -5Q309 14 304 28T288 54T257 76T210 97Q165 114 137 128T92 158T70 191T64 233Q64 274 80 305T118 360T162 397T197 418Q188 426 178 435T160 456T146 483T141 519Q141 559 160 598T213 668T293 718T392 737Q425 737 453 730T503 707T536 670T548 617Q548 592 540 573T521 540T497 519T474 512Q463 512 452 520T441 544Q441 561 448 578T474 618Q477 623 484 633T492 653Q492 668 480 677T452 692T418 700T390 703Q360 703 331 692T277 662T239 615T224 555Q224 533 230 519T253 492T296 469T364 441Q414 421 442 395T471 321Q471 280 456 249T419 195T375 156T339 133ZM313 149Q355 187 376 222T397 285Q397 295 393 303T384 317T374 327T368 332Q360 336 340 346T295 367T250 388T220 402Q185 371 160 342T135 275Q135 252 149 235T201 200Q224 189 257 175T313 149Z"  />
<glyph unicode="&#xA8;" horiz-adv-x="333" d="M223 610Q240 610 251 599T263 571Q263 554 252 543T223 532Q208 532 197 543T185 571Q185 588 196 599T223 610ZM402 610Q418 610 429 599T441 571Q441 554 430 543T402 532Q385 532 374 543T363 571Q363 588 374 599T402 610Z"  />
<glyph unicode="&#xA9;" horiz-adv-x="760" d="M588 480H569Q566 491 558 510T534 549T491 582T421 596Q351 596 308 547T264 406Q264 398 264 380T269 340T284 293T312 249T357 217T426 204Q469 204 507 221T578 283L596 274Q528 175 409 175Q357 175 316 193T245 241T199 310T183 392Q183 436 200 477T249 549T325 598T426 617Q438 617 448 617T467 614T488 609T517 599Q530 595 535 595Q546 595 550 602T559 617H578L588 480ZM407 741Q478 741 541 714T651 641T725 531T753 395Q753 323 726 260T652 150T542 75T407 48Q335 48 272 75T162 149T88 260T61 395Q61 467 88 530T163 640T273 714T407 741ZM407 711Q342 711 285 687T184 619T116 519T91 395Q91 329 116 272T183 171T283 103T407 78Q473 78 530 103T630 171T698 271T723 395Q723 461 698 518T630 619T530 686T407 711Z"  />
<glyph unicode="&#xAA;" horiz-adv-x="323" d="M327 733H370Q360 704 348 669T319 589Q312 571 305 551T292 513T283 480T279 459Q279 455 281 450T289 444Q296 444 306 452T325 472T344 496T358 516L370 509Q362 496 351 479T325 447T296 422T265 412Q235 412 235 449Q235 460 236 468T238 485L236 487Q216 458 192 435T137 412Q118 412 106 419T86 439T75 464T71 490Q71 533 89 577T136 658T198 718T262 741Q287 741 298 729T316 705L327 733ZM265 722Q237 722 211 694T165 625T132 543T119 473Q119 471 119 465T123 451T132 439T150 434Q172 434 188 449T211 474Q218 483 232 508T262 564T288 628T300 685Q300 687 299 693T295 705T284 717T265 722Z"  />
<glyph unicode="&#xAB;" horiz-adv-x="396" d="M400 452L273 221L278 15H252L190 234L369 452H400ZM222 452L95 221L100 15H74L12 234L191 452H222Z"  />
<glyph unicode="&#xAC;" horiz-adv-x="667" d="M613 468V178H560V416H84V468H613Z"  />
<glyph unicode="&#xAD;" horiz-adv-x="260" d="M221 265V204H41V265H221Z"  />
<glyph unicode="&#xAE;" horiz-adv-x="760" d="M404 608Q473 608 511 577T549 498Q549 468 536 449T505 417T469 399T440 390L543 244Q553 229 561 221T577 208T589 202T601 201V185H512L368 383H331V232Q331 223 340 214T365 202Q371 201 377 201T388 201V185H210V201Q229 201 239 205T253 217T259 238T260 269V524Q260 542 260 554T255 575T241 586T215 590V608H404ZM331 404H346Q364 404 385 407T425 420T457 447T470 493Q470 530 444 558T372 586Q358 586 349 584T331 578V404ZM407 741Q478 741 541 714T651 641T725 531T753 395Q753 323 726 260T652 150T542 75T407 48Q335 48 272 75T162 149T88 260T61 395Q61 467 88 530T163 640T273 714T407 741ZM407 711Q342 711 285 687T184 619T116 519T91 395Q91 329 116 272T183 171T283 103T407 78Q473 78 530 103T630 171T698 271T723 395Q723 461 698 518T630 619T530 686T407 711Z"  />
<glyph unicode="&#xAF;" horiz-adv-x="333" d="M462 577L449 532H164L177 577H462Z"  />
<glyph unicode="&#xB0;" horiz-adv-x="396" d="M249 741Q280 741 307 729T355 697T387 650T399 591Q399 560 387 533T355 486T308 453T249 441Q218 441 191 453T143 485T111 532T99 591Q99 621 110 648T141 696T188 729T249 741ZM249 700Q226 700 207 692T172 669T149 634T140 591Q140 569 148 549T171 514T206 491T249 482Q272 482 292 490T326 514T349 549T358 591Q358 614 350 634T326 668T291 691T249 700Z"  />
<glyph unicode="&#xB1;" horiz-adv-x="667" d="M322 427V665H374V427H613V375H374V137H322V375H84V427H322ZM613 52V0H84V52H613Z"  />
<glyph unicode="&#xB2;" horiz-adv-x="354" d="M273 422Q296 422 306 433T327 471H352L316 364H69L82 404Q95 416 107 427T134 451T166 478T209 510Q240 532 260 549T291 581T306 609T311 637Q311 669 291 688T242 707Q216 707 198 693T179 664Q179 658 182 654T197 642Q218 631 218 614Q218 603 210 590T181 577Q159 577 147 594T135 633Q135 654 145 672T174 703T216 723T270 731Q327 731 355 703T384 632Q384 614 379 598T359 565T318 531T251 494Q225 482 208 472T178 454T156 438T137 422H273Z"  />
<glyph unicode="&#xB3;" horiz-adv-x="354" d="M188 532Q181 532 175 535T168 546Q168 557 178 558T191 560Q211 560 222 560T239 560T248 561T254 563Q279 571 297 593T316 648Q316 676 301 692T261 708Q241 708 227 699T212 680Q212 675 218 662T224 643Q224 631 215 621T192 610Q178 610 166 621T153 652Q153 669 162 683T189 709T229 726T278 732Q328 732 357 708T387 644Q387 617 376 600T349 573T315 556T283 547Q296 541 308 534T330 517T346 493T352 460Q352 409 314 382T215 354Q177 354 152 362T112 384T91 412T84 439Q84 460 96 475T126 491Q139 491 150 481T161 456Q161 451 159 443T145 424Q138 418 137 415T136 410Q136 396 154 387T192 378Q225 378 251 402T278 473Q278 496 270 508T253 526T234 533T222 534L188 532Z"  />
<glyph unicode="&#xB4;" horiz-adv-x="333" d="M402 676L257 532H241L311 676H402Z"  />
<glyph unicode="&#xB5;" horiz-adv-x="500" d="M226 468L143 181Q136 157 132 142T126 118T123 104T122 92Q122 86 123 77T130 58T144 43T170 36Q185 36 205 43T249 73T295 137T338 245L403 468H477L385 148Q380 133 377 123T372 104T369 90T368 74Q368 62 371 55T378 44T388 39T396 38Q408 38 418 44T436 60T451 82T463 105H481Q473 83 462 57T422 11Q405 -2 387 -7T357 -12Q352 -12 341 -10T320 1T301 22T293 59Q293 68 293 78T296 97L294 99Q273 67 252 46T210 12T171 -6T138 -12Q118 -12 105 -7T82 7T68 24T59 41Q54 26 51 13T44 -16T38 -50T33 -92Q31 -120 28 -143T19 -182T3 -206T-24 -215Q-37 -215 -44 -210T-55 -197T-59 -184T-60 -177Q-60 -170 -56 -159T-47 -134T-35 -109T-23 -86Q0 -43 15 3T46 105L151 468H226Z"  />
<glyph unicode="&#xB6;" horiz-adv-x="479" d="M544 702H523Q501 702 490 697T473 679T466 648T465 600V-184H428V693H334V-184H297V339Q237 341 190 351T111 391Q79 420 67 459T54 531Q54 571 68 606T110 666T181 706T282 721H544V702Z"  />
<glyph unicode="&#xB7;" horiz-adv-x="208" d="M128 402Q151 402 166 386T182 348Q182 325 167 310T128 294Q105 294 90 309T74 348Q74 370 89 386T128 402Z"  />
<glyph unicode="&#xB8;" horiz-adv-x="333" d="M156 7L121 -44Q145 -50 158 -61T178 -83T185 -102T186 -113Q186 -136 173 -154T139 -185T91 -205T35 -212Q17 -212 0 -209T-32 -204L-24 -184Q-16 -186 -7 -187T18 -189Q33 -189 51 -186T84 -176T110 -157T120 -127Q120 -111 112 -103T93 -90T71 -86T55 -86L125 7H156Z"  />
<glyph unicode="&#xB9;" horiz-adv-x="354" d="M334 731L250 436Q248 430 246 420T244 404Q244 393 252 391T264 388H303L298 364H110L117 388H135Q158 388 168 393T184 414L247 642Q249 648 249 652Q249 668 229 671T184 673L191 697Q244 703 272 713T317 731H334Z"  />
<glyph unicode="&#xBA;" horiz-adv-x="313" d="M194 412Q157 412 130 440T103 517Q103 559 119 599T159 670T214 721T273 741Q313 741 339 711T366 637Q366 603 353 564T316 491T262 435T194 412ZM196 429Q221 429 239 445T272 486T296 541T312 597T320 644T323 670Q323 688 312 706T273 724Q240 724 217 694T177 624T154 544T146 483Q146 464 157 447T196 429Z"  />
<glyph unicode="&#xBB;" horiz-adv-x="396" d="M-9 15L118 246L113 452H139L201 233L22 15H-9ZM169 15L296 246L291 452H317L379 233L200 15H169Z"  />
<glyph unicode="&#xBC;" horiz-adv-x="990" d="M780 347H803L739 105H789L780 72H730Q722 45 721 37T719 21Q719 9 729 7T762 5L755 -20H585L592 5Q612 5 624 6T645 13T657 33T667 72H508L518 111L780 347ZM563 105H677L713 240L711 242L563 105ZM797 730H844L189 -30H142L797 730ZM384 730L302 435Q301 433 298 420T295 401Q295 390 301 388T312 386H357L350 362H158L164 386Q198 385 211 388T230 414L293 640Q295 648 295 653Q295 667 280 669T230 669L236 693Q288 699 314 709T357 730H384Z"  />
<glyph unicode="&#xBD;" horiz-adv-x="990" d="M798 730H843L189 -30H142L798 730ZM383 730L302 434Q297 417 296 411T294 399Q294 390 302 389T313 387H356L350 363H159L163 387Q181 387 193 387T212 389T224 398T231 415L294 640Q297 652 294 658T282 666T260 669T231 669L236 693Q288 699 316 710T361 730H383ZM725 39Q748 39 756 50T776 88H803L767 -20H518L530 18Q542 30 554 42T580 66T612 93T654 124Q687 148 707 166T739 199T754 227T758 254Q758 281 740 302T694 323Q682 323 671 320T650 310T635 296T629 280Q629 266 646 260Q656 255 662 249T669 228Q669 210 658 201T631 192Q605 192 593 210T581 250Q581 273 592 291T623 321T667 340T720 347Q754 347 776 337T811 312T829 281T834 252Q834 232 829 215T809 181T769 147T702 110Q677 98 660 89T629 71T607 55T588 39H725Z"  />
<glyph unicode="&#xBE;" horiz-adv-x="990" d="M782 347H807L742 105H793L784 72H734Q730 58 728 50T724 37T723 28T722 21Q722 10 731 8T766 6L758 -20H588L596 6Q596 6 602 6T615 6T629 6T637 7Q653 13 659 31T671 72H511L521 111L782 347ZM567 105H681L717 242L715 244L567 105ZM796 730H843L190 -30H144L796 730ZM237 530Q218 530 218 544Q218 550 221 553T228 557T236 559T241 560H296Q326 566 345 590T364 647Q364 677 348 691T310 705Q292 705 278 697T263 679Q263 677 263 674T269 663Q274 655 275 651T276 642Q276 628 267 619T242 609Q227 609 215 620T202 650Q202 684 236 706T328 729Q344 729 363 726T400 713T428 687T439 643Q439 615 428 598T400 569T365 553T334 545V543Q340 542 352 538T377 525T399 499T408 458Q408 407 368 380T267 353Q225 353 200 362T160 386T140 414T135 440Q135 461 147 476T177 491Q190 491 201 482T213 455Q213 450 211 443T197 424Q195 422 192 419T189 411Q189 403 194 397T208 387T226 380T245 377Q264 377 280 385T307 406T324 437T330 473Q330 495 322 507T303 524T283 531T272 532L237 530Z"  />
<glyph unicode="&#xBF;" horiz-adv-x="313" d="M225 344H258L202 140Q181 142 171 143T150 144Q98 144 67 122T19 70T-3 11T-9 -34Q-9 -53 -5 -72T10 -106T34 -131T68 -141Q79 -141 91 -137T125 -110Q144 -90 154 -86T174 -82Q194 -82 205 -94T216 -121Q216 -145 194 -164T117 -184Q67 -184 36 -167T-14 -122T-38 -62T-45 3Q-45 63 -28 103T16 167T75 200T137 210Q151 210 165 210T187 208L225 344ZM289 455Q266 455 251 471T235 509Q235 532 250 547T289 563Q312 563 327 548T343 509Q343 487 328 471T289 455Z"  />
<glyph unicode="&#xC0;" horiz-adv-x="708" d="M515 741L546 132Q548 96 555 76T576 46T609 32T655 28L646 0H367L376 28Q393 28 411 29T443 37T466 54T474 87L465 256H203L131 134Q128 129 119 110T109 70Q109 55 118 47T139 35T164 30T185 28L178 0H-53L-45 28Q-18 29 2 39T37 62T62 89T79 115L434 722L515 741ZM444 664H442L224 292H462L444 664ZM566 786H550L405 930H496L566 786Z"  />
<glyph unicode="&#xC1;" horiz-adv-x="708" d="M515 741L546 132Q548 96 555 76T576 46T609 32T655 28L646 0H367L376 28Q393 28 411 29T443 37T466 54T474 87L465 256H203L131 134Q128 129 119 110T109 70Q109 55 118 47T139 35T164 30T185 28L178 0H-53L-45 28Q-18 29 2 39T37 62T62 89T79 115L434 722L515 741ZM444 664H442L224 292H462L444 664ZM590 930L445 786H429L499 930H590Z"  />
<glyph unicode="&#xC2;" horiz-adv-x="708" d="M515 741L546 132Q548 96 555 76T576 46T609 32T655 28L646 0H367L376 28Q393 28 411 29T443 37T466 54T474 87L465 256H203L131 134Q128 129 119 110T109 70Q109 55 118 47T139 35T164 30T185 28L178 0H-53L-45 28Q-18 29 2 39T37 62T62 89T79 115L434 722L515 741ZM444 664H442L224 292H462L444 664ZM593 930L637 785H617L548 878L390 785H364L532 930H593Z"  />
<glyph unicode="&#xC3;" horiz-adv-x="708" d="M515 741L546 132Q548 96 555 76T576 46T609 32T655 28L646 0H367L376 28Q393 28 411 29T443 37T466 54T474 87L465 256H203L131 134Q128 129 119 110T109 70Q109 55 118 47T139 35T164 30T185 28L178 0H-53L-45 28Q-18 29 2 39T37 62T62 89T79 115L434 722L515 741ZM444 664H442L224 292H462L444 664ZM650 893Q650 885 648 867T637 831Q629 813 613 799T566 785Q548 785 531 793T478 821Q461 830 451 835T434 842T423 844T415 845Q399 845 390 838T376 820T370 800T368 785H351Q351 811 358 831T376 865Q401 893 437 893Q448 893 465 888T517 864Q536 853 547 847T565 838T577 834T587 833Q601 833 610 839T624 855T631 874T635 893H650Z"  />
<glyph unicode="&#xC4;" horiz-adv-x="708" d="M515 741L546 132Q548 96 555 76T576 46T609 32T655 28L646 0H367L376 28Q393 28 411 29T443 37T466 54T474 87L465 256H203L131 134Q128 129 119 110T109 70Q109 55 118 47T139 35T164 30T185 28L178 0H-53L-45 28Q-18 29 2 39T37 62T62 89T79 115L434 722L515 741ZM444 664H442L224 292H462L444 664ZM411 864Q428 864 439 853T451 825Q451 808 440 797T411 786Q396 786 385 797T373 825Q373 842 384 853T411 864ZM590 864Q606 864 617 853T629 825Q629 808 618 797T590 786Q573 786 562 797T551 825Q551 842 562 853T590 864Z"  />
<glyph unicode="&#xC5;" horiz-adv-x="708" d="M515 741L546 132Q548 96 555 76T576 46T609 32T655 28L646 0H367L376 28Q393 28 411 29T443 37T466 54T474 87L465 256H203L131 134Q128 129 119 110T109 70Q109 55 118 47T139 35T164 30T185 28L178 0H-53L-45 28Q-18 29 2 39T37 62T62 89T79 115L434 722L515 741ZM444 664H442L224 292H462L444 664ZM501 968Q520 968 536 961T565 942T585 912T592 876Q592 857 585 840T566 811T537 791T501 784Q482 784 465 791T436 810T416 840T409 876Q409 895 416 912T435 941T465 961T501 968ZM500 940Q474 940 456 922T437 876Q437 849 455 831T500 812Q527 812 545 831T564 876Q564 902 546 921T500 940Z"  />
<glyph unicode="&#xC6;" horiz-adv-x="969" d="M1006 721L1036 538L1009 534Q995 566 979 595T937 645T875 680T781 693Q752 693 734 689T704 676T687 654T676 622L613 385H664Q715 385 747 396T798 423T826 460T843 501H870L794 216H768Q770 225 772 242T775 273Q775 321 745 339T657 357H605L535 93Q533 87 532 79T531 63Q531 43 549 36T610 28Q668 28 712 34T794 58T868 107T945 188L968 174L882 0H347L355 28Q374 28 390 29T418 37T439 58T456 100L497 256H231L149 139Q142 129 131 109T120 71Q120 45 142 38T197 28L191 0H-44L-35 28Q-18 29 -5 31T22 42T49 65T83 107L436 609Q440 615 445 626T451 650Q451 664 444 672T425 685T400 691T376 693L383 721H1006ZM507 292L591 607Q596 624 598 641T601 664Q601 666 601 670T597 680T588 689T572 693Q553 693 535 679T486 620L257 292H507Z"  />
<glyph unicode="&#xC7;" horiz-adv-x="604" d="M325 -45Q332 -49 342 -55T361 -70T377 -93T384 -125Q384 -143 376 -158T355 -186T323 -204T285 -211Q262 -211 240 -206T200 -193T167 -178T143 -165L157 -148L189 -162Q197 -165 212 -170T247 -175Q274 -175 290 -164T306 -129Q306 -116 301 -108T289 -93T274 -83T259 -76L312 -20Q256 -21 209 0T126 60T71 153T51 273Q51 328 66 384T108 493T172 590T252 669T342 722T439 741Q466 741 489 736T541 718Q561 710 568 709T580 708Q599 708 612 714T634 727L656 535L631 532Q623 552 610 582T575 641T521 689T442 709Q397 709 358 688T287 632T228 550T185 454T158 354T148 261Q148 225 158 187T190 117T248 65T335 45Q382 45 419 61T487 103T539 155T578 206L600 192Q584 166 561 133T508 70T439 17T356 -13L325 -45Z"  />
<glyph unicode="&#xC8;" horiz-adv-x="625" d="M658 721L687 537L661 531Q643 572 623 602T576 653T513 683T425 693Q396 693 375 691T340 682T317 661T300 622L235 386H284Q337 386 371 394T426 416T460 452T481 499H509L432 216H404Q411 241 412 251T413 270Q413 295 405 311T383 338T349 353T308 358H228L153 84Q150 76 150 66Q150 42 174 35T244 28Q286 28 329 30T415 48T504 95T596 186L620 173L533 0H-38L-29 28Q-8 28 8 29T36 38T58 62T76 109L216 619Q218 625 220 634T222 655Q222 682 198 686T135 692L144 721H658ZM524 786H508L363 930H454L524 786Z"  />
<glyph unicode="&#xC9;" horiz-adv-x="625" d="M658 721L687 537L661 531Q643 572 623 602T576 653T513 683T425 693Q396 693 375 691T340 682T317 661T300 622L235 386H284Q337 386 371 394T426 416T460 452T481 499H509L432 216H404Q411 241 412 251T413 270Q413 295 405 311T383 338T349 353T308 358H228L153 84Q150 76 150 66Q150 42 174 35T244 28Q286 28 329 30T415 48T504 95T596 186L620 173L533 0H-38L-29 28Q-8 28 8 29T36 38T58 62T76 109L216 619Q218 625 220 634T222 655Q222 682 198 686T135 692L144 721H658ZM548 930L403 786H387L457 930H548Z"  />
<glyph unicode="&#xCA;" horiz-adv-x="625" d="M658 721L687 537L661 531Q643 572 623 602T576 653T513 683T425 693Q396 693 375 691T340 682T317 661T300 622L235 386H284Q337 386 371 394T426 416T460 452T481 499H509L432 216H404Q411 241 412 251T413 270Q413 295 405 311T383 338T349 353T308 358H228L153 84Q150 76 150 66Q150 42 174 35T244 28Q286 28 329 30T415 48T504 95T596 186L620 173L533 0H-38L-29 28Q-8 28 8 29T36 38T58 62T76 109L216 619Q218 625 220 634T222 655Q222 682 198 686T135 692L144 721H658ZM551 930L595 785H575L506 878L348 785H322L490 930H551Z"  />
<glyph unicode="&#xCB;" horiz-adv-x="625" d="M658 721L687 537L661 531Q643 572 623 602T576 653T513 683T425 693Q396 693 375 691T340 682T317 661T300 622L235 386H284Q337 386 371 394T426 416T460 452T481 499H509L432 216H404Q411 241 412 251T413 270Q413 295 405 311T383 338T349 353T308 358H228L153 84Q150 76 150 66Q150 42 174 35T244 28Q286 28 329 30T415 48T504 95T596 186L620 173L533 0H-38L-29 28Q-8 28 8 29T36 38T58 62T76 109L216 619Q218 625 220 634T222 655Q222 682 198 686T135 692L144 721H658ZM369 864Q386 864 397 853T409 825Q409 808 398 797T369 786Q354 786 343 797T331 825Q331 842 342 853T369 864ZM548 864Q564 864 575 853T587 825Q587 808 576 797T548 786Q531 786 520 797T509 825Q509 842 520 853T548 864Z"  />
<glyph unicode="&#xCC;" horiz-adv-x="313" d="M412 721L404 693H385Q356 693 334 680T301 629L162 122Q161 120 160 113T156 98T153 82T151 67Q151 48 164 38T216 28H236L229 0H-28L-21 28Q-9 28 4 29T30 35T53 51T69 84L219 629Q221 634 222 641T223 655Q223 677 205 685T158 693H132L140 721H412ZM370 786H354L209 930H300L370 786Z"  />
<glyph unicode="&#xCD;" horiz-adv-x="313" d="M412 721L404 693H385Q356 693 334 680T301 629L162 122Q161 120 160 113T156 98T153 82T151 67Q151 48 164 38T216 28H236L229 0H-28L-21 28Q-9 28 4 29T30 35T53 51T69 84L219 629Q221 634 222 641T223 655Q223 677 205 685T158 693H132L140 721H412ZM394 930L249 786H233L303 930H394Z"  />
<glyph unicode="&#xCE;" horiz-adv-x="313" d="M412 721L404 693H385Q356 693 334 680T301 629L162 122Q161 120 160 113T156 98T153 82T151 67Q151 48 164 38T216 28H236L229 0H-28L-21 28Q-9 28 4 29T30 35T53 51T69 84L219 629Q221 634 222 641T223 655Q223 677 205 685T158 693H132L140 721H412ZM397 930L441 785H421L352 878L194 785H168L336 930H397Z"  />
<glyph unicode="&#xCF;" horiz-adv-x="313" d="M412 721L404 693H385Q356 693 334 680T301 629L162 122Q161 120 160 113T156 98T153 82T151 67Q151 48 164 38T216 28H236L229 0H-28L-21 28Q-9 28 4 29T30 35T53 51T69 84L219 629Q221 634 222 641T223 655Q223 677 205 685T158 693H132L140 721H412ZM215 864Q232 864 243 853T255 825Q255 808 244 797T215 786Q200 786 189 797T177 825Q177 842 188 853T215 864ZM394 864Q410 864 421 853T433 825Q433 808 422 797T394 786Q377 786 366 797T355 825Q355 842 366 853T394 864Z"  />
<glyph unicode="&#xD0;" horiz-adv-x="677" d="M18 343L28 379H153L223 635Q226 642 226 655Q226 669 218 676T197 687T165 692T125 693L132 721H367Q460 721 521 695T619 628T671 535T687 433Q687 399 678 348T641 242T566 133T439 41Q407 25 377 17T308 5T217 1T89 0H-36L-26 28H3Q56 28 75 95L143 343H18ZM227 343L161 104Q159 99 157 88T155 64Q155 44 171 36T225 28Q290 28 336 41T416 76T471 124T510 177Q529 209 545 247T573 327T591 409T598 487Q598 524 588 560T554 626T492 674T399 693Q361 693 339 681T307 635L236 379H399L388 343H227Z"  />
<glyph unicode="&#xD1;" horiz-adv-x="698" d="M290 721L525 133H527L649 579Q651 588 653 602T656 632Q656 654 648 666T626 684T599 691T575 693L582 721H798L792 693Q766 691 748 681T719 658T701 630T692 604L520 -20H503L247 617H245L118 156Q114 144 111 125T107 86Q107 65 117 54T141 37T172 30T201 28L193 0H-41L-32 28Q-11 29 4 32T33 47T56 81T76 139L205 604Q207 612 209 623T212 647Q212 663 204 672T183 686T156 692T132 693L141 721H290ZM645 893Q645 885 643 867T632 831Q624 813 608 799T561 785Q543 785 526 793T473 821Q456 830 446 835T429 842T418 844T410 845Q394 845 385 838T371 820T365 800T363 785H346Q346 811 353 831T371 865Q396 893 432 893Q443 893 460 888T512 864Q531 853 542 847T560 838T572 834T582 833Q596 833 605 839T619 855T626 874T630 893H645Z"  />
<glyph unicode="&#xD2;" horiz-adv-x="698" d="M433 741Q503 741 554 713T639 642T689 548T705 449Q705 396 691 341T650 233T588 135T508 55T414 0T312 -20Q257 -20 209 2T126 65T71 158T50 275Q50 369 85 449T173 593Q214 642 251 671T322 716T383 736T433 741ZM440 709Q403 709 371 696T310 659T259 603T216 533Q197 495 183 453T159 369T144 285T139 208Q139 188 143 155T165 90T216 35T308 12Q347 12 378 23T434 52T477 93T511 140Q527 167 545 207T579 297T605 402T616 513Q616 521 615 538T608 578T592 623T562 667Q536 694 502 701T440 709ZM561 786H545L400 930H491L561 786Z"  />
<glyph unicode="&#xD3;" horiz-adv-x="698" d="M433 741Q503 741 554 713T639 642T689 548T705 449Q705 396 691 341T650 233T588 135T508 55T414 0T312 -20Q257 -20 209 2T126 65T71 158T50 275Q50 369 85 449T173 593Q214 642 251 671T322 716T383 736T433 741ZM440 709Q403 709 371 696T310 659T259 603T216 533Q197 495 183 453T159 369T144 285T139 208Q139 188 143 155T165 90T216 35T308 12Q347 12 378 23T434 52T477 93T511 140Q527 167 545 207T579 297T605 402T616 513Q616 521 615 538T608 578T592 623T562 667Q536 694 502 701T440 709ZM585 930L440 786H424L494 930H585Z"  />
<glyph unicode="&#xD4;" horiz-adv-x="698" d="M433 741Q503 741 554 713T639 642T689 548T705 449Q705 396 691 341T650 233T588 135T508 55T414 0T312 -20Q257 -20 209 2T126 65T71 158T50 275Q50 369 85 449T173 593Q214 642 251 671T322 716T383 736T433 741ZM440 709Q403 709 371 696T310 659T259 603T216 533Q197 495 183 453T159 369T144 285T139 208Q139 188 143 155T165 90T216 35T308 12Q347 12 378 23T434 52T477 93T511 140Q527 167 545 207T579 297T605 402T616 513Q616 521 615 538T608 578T592 623T562 667Q536 694 502 701T440 709ZM568 930L612 785H592L523 878L365 785H339L507 930H568Z"  />
<glyph unicode="&#xD5;" horiz-adv-x="698" d="M433 741Q503 741 554 713T639 642T689 548T705 449Q705 396 691 341T650 233T588 135T508 55T414 0T312 -20Q257 -20 209 2T126 65T71 158T50 275Q50 369 85 449T173 593Q214 642 251 671T322 716T383 736T433 741ZM440 709Q403 709 371 696T310 659T259 603T216 533Q197 495 183 453T159 369T144 285T139 208Q139 188 143 155T165 90T216 35T308 12Q347 12 378 23T434 52T477 93T511 140Q527 167 545 207T579 297T605 402T616 513Q616 521 615 538T608 578T592 623T562 667Q536 694 502 701T440 709ZM645 893Q645 885 643 867T632 831Q624 813 608 799T561 785Q543 785 526 793T473 821Q456 830 446 835T429 842T418 844T410 845Q394 845 385 838T371 820T365 800T363 785H346Q346 811 353 831T371 865Q396 893 432 893Q443 893 460 888T512 864Q531 853 542 847T560 838T572 834T582 833Q596 833 605 839T619 855T626 874T630 893H645Z"  />
<glyph unicode="&#xD6;" horiz-adv-x="698" d="M433 741Q503 741 554 713T639 642T689 548T705 449Q705 396 691 341T650 233T588 135T508 55T414 0T312 -20Q257 -20 209 2T126 65T71 158T50 275Q50 369 85 449T173 593Q214 642 251 671T322 716T383 736T433 741ZM440 709Q403 709 371 696T310 659T259 603T216 533Q197 495 183 453T159 369T144 285T139 208Q139 188 143 155T165 90T216 35T308 12Q347 12 378 23T434 52T477 93T511 140Q527 167 545 207T579 297T605 402T616 513Q616 521 615 538T608 578T592 623T562 667Q536 694 502 701T440 709ZM386 864Q403 864 414 853T426 825Q426 808 415 797T386 786Q371 786 360 797T348 825Q348 842 359 853T386 864ZM565 864Q581 864 592 853T604 825Q604 808 593 797T565 786Q548 786 537 797T526 825Q526 842 537 853T565 864Z"  />
<glyph unicode="&#xD7;" horiz-adv-x="667" d="M145 563L348 358L552 563L589 525L385 321L587 119L550 82L348 284L145 82L108 119L311 321L108 525L145 563Z"  />
<glyph unicode="&#xD8;" horiz-adv-x="698" d="M682 739L707 713L643 639Q652 626 663 608T683 566T698 512T705 442Q705 397 695 354T669 272T631 198T585 133Q541 79 500 48T423 2T358 -16T309 -20Q275 -20 249 -14T202 3T165 26T135 51L75 -19L51 4L114 78Q103 94 92 113T71 155T56 208T50 275Q50 438 173 591Q215 643 254 673T327 718T391 737T442 741Q477 741 504 734T553 716T590 692T621 667L682 739ZM591 633Q584 643 574 656T547 681T506 701T447 709Q393 709 354 689T286 639T239 578T210 520Q178 448 159 374T139 221Q139 208 139 198T141 176T145 152T151 123L591 633ZM165 87Q170 78 179 65T204 41T244 21T306 12Q325 12 351 16T405 34T463 76T520 154Q537 185 554 226T585 312T607 407T616 504Q616 535 614 554T605 596L165 87Z"  />
<glyph unicode="&#xD9;" horiz-adv-x="719" d="M411 721L404 693H381Q357 693 342 688T317 674T301 651T291 622L191 261Q183 230 180 207T177 166Q177 135 186 108T215 61T263 29T334 17Q392 17 431 35T498 86T542 162T574 257L667 595Q669 602 671 611T673 633Q673 654 663 666T639 684T608 691T580 693L588 721H813L806 693Q789 692 774 688T746 673T722 641T702 587L603 231Q588 178 568 132T515 53T437 0T325 -20Q279 -20 238 -9T167 27T118 89T100 177Q100 218 105 243T118 297L200 591Q202 599 207 621T213 661Q213 672 206 678T187 688T160 692T130 693L138 721H411ZM571 786H555L410 930H501L571 786Z"  />
<glyph unicode="&#xDA;" horiz-adv-x="719" d="M411 721L404 693H381Q357 693 342 688T317 674T301 651T291 622L191 261Q183 230 180 207T177 166Q177 135 186 108T215 61T263 29T334 17Q392 17 431 35T498 86T542 162T574 257L667 595Q669 602 671 611T673 633Q673 654 663 666T639 684T608 691T580 693L588 721H813L806 693Q789 692 774 688T746 673T722 641T702 587L603 231Q588 178 568 132T515 53T437 0T325 -20Q279 -20 238 -9T167 27T118 89T100 177Q100 218 105 243T118 297L200 591Q202 599 207 621T213 661Q213 672 206 678T187 688T160 692T130 693L138 721H411ZM595 930L450 786H434L504 930H595Z"  />
<glyph unicode="&#xDB;" horiz-adv-x="719" d="M411 721L404 693H381Q357 693 342 688T317 674T301 651T291 622L191 261Q183 230 180 207T177 166Q177 135 186 108T215 61T263 29T334 17Q392 17 431 35T498 86T542 162T574 257L667 595Q669 602 671 611T673 633Q673 654 663 666T639 684T608 691T580 693L588 721H813L806 693Q789 692 774 688T746 673T722 641T702 587L603 231Q588 178 568 132T515 53T437 0T325 -20Q279 -20 238 -9T167 27T118 89T100 177Q100 218 105 243T118 297L200 591Q202 599 207 621T213 661Q213 672 206 678T187 688T160 692T130 693L138 721H411ZM598 930L642 785H622L553 878L395 785H369L537 930H598Z"  />
<glyph unicode="&#xDC;" horiz-adv-x="719" d="M411 721L404 693H381Q357 693 342 688T317 674T301 651T291 622L191 261Q183 230 180 207T177 166Q177 135 186 108T215 61T263 29T334 17Q392 17 431 35T498 86T542 162T574 257L667 595Q669 602 671 611T673 633Q673 654 663 666T639 684T608 691T580 693L588 721H813L806 693Q789 692 774 688T746 673T722 641T702 587L603 231Q588 178 568 132T515 53T437 0T325 -20Q279 -20 238 -9T167 27T118 89T100 177Q100 218 105 243T118 297L200 591Q202 599 207 621T213 661Q213 672 206 678T187 688T160 692T130 693L138 721H411ZM416 864Q433 864 444 853T456 825Q456 808 445 797T416 786Q401 786 390 797T378 825Q378 842 389 853T416 864ZM595 864Q611 864 622 853T634 825Q634 808 623 797T595 786Q578 786 567 797T556 825Q556 842 567 853T595 864Z"  />
<glyph unicode="&#xDD;" horiz-adv-x="677" d="M391 721L383 693Q362 693 346 692T317 687T299 674T292 649Q292 632 295 616T301 592L369 329L599 607Q607 617 614 630T622 655Q622 668 614 675T595 687T571 692T552 693L561 721H784L778 693Q753 691 733 682T697 662T670 638T653 619L386 295L332 98Q330 92 329 83T327 63Q327 50 334 43T354 33T384 29T421 28L412 0H125L133 28Q158 28 176 29T207 36T230 55T247 93L301 284L229 560Q217 606 208 632T187 672T159 688T115 693L122 721H391ZM574 930L429 786H413L483 930H574Z"  />
<glyph unicode="&#xDE;" horiz-adv-x="573" d="M406 693Q391 693 376 692T349 685T326 666T308 629L286 551H367Q400 551 424 549T467 543T498 532T524 518Q534 511 546 500T567 473T583 437T590 391Q590 335 564 286T492 208Q472 195 431 181T340 167H180L159 89Q156 80 156 65Q156 46 172 37T226 28H245L237 0H-19L-11 28Q-2 28 10 29T34 36T56 51T72 80L224 629Q226 634 227 640T228 654Q228 676 210 684T162 693H145L153 721H414L406 693ZM187 195H287Q303 195 323 196T363 201T403 214T437 238Q452 254 464 277T484 324T496 374T501 420Q501 450 491 470T462 501T417 518T360 523H278L187 195Z"  />
<glyph unicode="&#xDF;" horiz-adv-x="448" d="M224 434Q249 436 271 440T311 452T346 475T378 512Q398 542 404 572T411 623Q411 631 409 645T397 674T371 698T323 709Q268 709 240 673T191 558L64 63Q44 -13 17 -61T-38 -136T-91 -174T-132 -184Q-152 -184 -172 -171T-192 -134Q-192 -118 -182 -107T-154 -96Q-146 -96 -136 -100T-115 -118Q-106 -129 -101 -131T-91 -134Q-60 -134 -38 -88T2 38Q4 46 7 65T15 105T22 145T28 171L121 542Q131 581 148 616T191 678T251 721T328 737Q365 737 392 725T438 692T465 645T474 592Q474 553 460 524T422 475T364 441T294 419V417Q306 414 327 407T368 381T404 332T420 251Q420 198 400 150T347 64T277 6T203 -16Q190 -16 174 -13T144 -2T121 16T111 44Q111 61 121 72T152 83Q171 83 179 73T192 45Q196 29 201 22T220 14Q249 14 273 44T314 118T340 209T349 291Q349 330 334 353T299 388T256 403T218 409L224 434Z"  />
<glyph unicode="&#xE0;" horiz-adv-x="490" d="M397 468H461L338 119Q335 110 330 91T325 53Q325 47 327 40T338 33Q350 33 363 43T391 70T418 105T445 143L464 130Q451 110 434 85T396 37T352 -1T304 -16Q259 -16 259 39Q259 53 260 69T263 97L261 99Q246 76 230 55T196 19T158 -6T113 -16Q86 -16 67 -6T36 22T18 60T12 102Q12 167 39 234T109 357T201 448T299 484Q318 484 332 479T355 464T370 445T381 426L397 468ZM129 18Q155 18 182 40T235 96T283 174T321 259T347 337T357 396Q357 397 356 406T350 425T333 444T302 452Q275 452 248 432T197 380T152 306T116 223T92 142T83 73Q83 46 97 32T129 18ZM427 540H411L266 684H357L427 540Z"  />
<glyph unicode="&#xE1;" horiz-adv-x="490" d="M397 468H461L338 119Q335 110 330 91T325 53Q325 47 327 40T338 33Q350 33 363 43T391 70T418 105T445 143L464 130Q451 110 434 85T396 37T352 -1T304 -16Q259 -16 259 39Q259 53 260 69T263 97L261 99Q246 76 230 55T196 19T158 -6T113 -16Q86 -16 67 -6T36 22T18 60T12 102Q12 167 39 234T109 357T201 448T299 484Q318 484 332 479T355 464T370 445T381 426L397 468ZM129 18Q155 18 182 40T235 96T283 174T321 259T347 337T357 396Q357 397 356 406T350 425T333 444T302 452Q275 452 248 432T197 380T152 306T116 223T92 142T83 73Q83 46 97 32T129 18ZM451 684L306 540H290L360 684H451Z"  />
<glyph unicode="&#xE2;" horiz-adv-x="490" d="M397 468H461L338 119Q335 110 330 91T325 53Q325 47 327 40T338 33Q350 33 363 43T391 70T418 105T445 143L464 130Q451 110 434 85T396 37T352 -1T304 -16Q259 -16 259 39Q259 53 260 69T263 97L261 99Q246 76 230 55T196 19T158 -6T113 -16Q86 -16 67 -6T36 22T18 60T12 102Q12 167 39 234T109 357T201 448T299 484Q318 484 332 479T355 464T370 445T381 426L397 468ZM129 18Q155 18 182 40T235 96T283 174T321 259T347 337T357 396Q357 397 356 406T350 425T333 444T302 452Q275 452 248 432T197 380T152 306T116 223T92 142T83 73Q83 46 97 32T129 18ZM424 684L468 539H448L379 632L221 539H195L363 684H424Z"  />
<glyph unicode="&#xE3;" horiz-adv-x="490" d="M397 468H461L338 119Q335 110 330 91T325 53Q325 47 327 40T338 33Q350 33 363 43T391 70T418 105T445 143L464 130Q451 110 434 85T396 37T352 -1T304 -16Q259 -16 259 39Q259 53 260 69T263 97L261 99Q246 76 230 55T196 19T158 -6T113 -16Q86 -16 67 -6T36 22T18 60T12 102Q12 167 39 234T109 357T201 448T299 484Q318 484 332 479T355 464T370 445T381 426L397 468ZM129 18Q155 18 182 40T235 96T283 174T321 259T347 337T357 396Q357 397 356 406T350 425T333 444T302 452Q275 452 248 432T197 380T152 306T116 223T92 142T83 73Q83 46 97 32T129 18ZM511 647Q511 639 509 621T498 585Q490 567 474 553T427 539Q409 539 392 547T339 575Q322 584 312 589T295 596T284 598T276 599Q260 599 251 592T237 574T231 554T229 539H212Q212 565 219 585T237 619Q262 647 298 647Q309 647 326 642T378 618Q397 607 408 601T426 592T438 588T448 587Q462 587 471 593T485 609T492 628T496 647H511Z"  />
<glyph unicode="&#xE4;" horiz-adv-x="490" d="M397 468H461L338 119Q335 110 330 91T325 53Q325 47 327 40T338 33Q350 33 363 43T391 70T418 105T445 143L464 130Q451 110 434 85T396 37T352 -1T304 -16Q259 -16 259 39Q259 53 260 69T263 97L261 99Q246 76 230 55T196 19T158 -6T113 -16Q86 -16 67 -6T36 22T18 60T12 102Q12 167 39 234T109 357T201 448T299 484Q318 484 332 479T355 464T370 445T381 426L397 468ZM129 18Q155 18 182 40T235 96T283 174T321 259T347 337T357 396Q357 397 356 406T350 425T333 444T302 452Q275 452 248 432T197 380T152 306T116 223T92 142T83 73Q83 46 97 32T129 18ZM242 618Q259 618 270 607T282 579Q282 562 271 551T242 540Q227 540 216 551T204 579Q204 596 215 607T242 618ZM421 618Q437 618 448 607T460 579Q460 562 449 551T421 540Q404 540 393 551T382 579Q382 596 393 607T421 618Z"  />
<glyph unicode="&#xE5;" horiz-adv-x="490" d="M397 468H461L338 119Q335 110 330 91T325 53Q325 47 327 40T338 33Q350 33 363 43T391 70T418 105T445 143L464 130Q451 110 434 85T396 37T352 -1T304 -16Q259 -16 259 39Q259 53 260 69T263 97L261 99Q246 76 230 55T196 19T158 -6T113 -16Q86 -16 67 -6T36 22T18 60T12 102Q12 167 39 234T109 357T201 448T299 484Q318 484 332 479T355 464T370 445T381 426L397 468ZM129 18Q155 18 182 40T235 96T283 174T321 259T347 337T357 396Q357 397 356 406T350 425T333 444T302 452Q275 452 248 432T197 380T152 306T116 223T92 142T83 73Q83 46 97 32T129 18ZM362 722Q381 722 397 715T426 696T446 666T453 630Q453 611 446 594T427 565T398 545T362 538Q343 538 326 545T297 564T277 594T270 630Q270 649 277 666T296 695T326 715T362 722ZM361 694Q335 694 317 676T298 630Q298 603 316 585T361 566Q388 566 406 585T425 630Q425 656 407 675T361 694Z"  />
<glyph unicode="&#xE6;" horiz-adv-x="656" d="M613 126Q602 112 582 88T534 41T476 1T410 -16Q379 -16 358 -4T324 28T303 74T295 131H293Q279 107 262 82T224 34T179 -2T127 -16Q98 -16 81 -3T53 29T39 68T35 102Q35 148 47 194T81 282T131 362T190 426T253 468T315 484Q330 484 350 475T388 432L402 468H465L458 448L460 446Q473 456 498 470T564 484Q589 484 604 475T627 453T637 427T640 406Q640 355 609 314T534 242T444 188T368 152Q367 147 366 133T365 104Q365 95 367 81T375 53T395 30T430 20Q445 20 460 24T494 41T539 78T597 141L613 126ZM373 179Q405 191 433 208T489 246Q520 268 540 290T571 333T586 373T591 409Q591 429 581 443T549 458Q528 458 508 443T468 403T433 348T404 286T383 227T373 179ZM148 16Q157 16 165 19T181 27T194 37T203 44Q214 54 230 76T265 130T301 198T333 271T357 341T366 401Q366 405 364 414T357 432T342 449T315 456Q290 456 265 437T217 385T173 311T138 228T115 144T106 70Q106 65 106 56T111 38T123 23T148 16Z"  />
<glyph unicode="&#xE7;" horiz-adv-x="375" d="M147 -47Q155 -51 164 -56T182 -70T195 -91T201 -121Q201 -135 195 -151T177 -180T147 -201T104 -210Q72 -210 53 -201T20 -182L32 -164Q49 -172 61 -177T88 -182Q108 -182 121 -167T135 -132Q135 -120 126 -106T89 -81L142 -16Q116 -15 94 -3T56 30T32 77T23 132Q23 193 45 255T105 369T190 452T289 484Q328 484 354 465T381 415Q381 396 370 381T335 366Q306 366 301 383T295 425Q294 434 290 445T268 456Q244 456 222 437T180 386T145 315T118 235T100 157T94 93Q94 54 112 35T156 16Q179 16 199 25T239 49T277 85T316 128L334 114Q319 93 303 73T268 36T227 5T177 -14L147 -47Z"  />
<glyph unicode="&#xE8;" horiz-adv-x="406" d="M352 125Q331 100 308 75T257 30T200 -3T137 -16Q105 -16 82 -3T45 32T23 79T16 129Q16 189 41 252T107 366T196 451T294 484Q305 484 320 481T348 469T370 446T379 408Q379 374 363 344T321 288T264 240T200 201T140 172T94 151Q93 145 92 131T90 102Q90 91 93 77T103 50T124 29T157 20Q185 20 212 34T262 67T304 107T334 141L352 125ZM97 176Q124 189 163 209T239 258T301 324T327 407Q327 411 326 419T320 436T307 450T283 456Q268 456 246 446T198 405T146 319T97 176ZM385 540H369L224 684H315L385 540Z"  />
<glyph unicode="&#xE9;" horiz-adv-x="406" d="M352 125Q331 100 308 75T257 30T200 -3T137 -16Q105 -16 82 -3T45 32T23 79T16 129Q16 189 41 252T107 366T196 451T294 484Q305 484 320 481T348 469T370 446T379 408Q379 374 363 344T321 288T264 240T200 201T140 172T94 151Q93 145 92 131T90 102Q90 91 93 77T103 50T124 29T157 20Q185 20 212 34T262 67T304 107T334 141L352 125ZM97 176Q124 189 163 209T239 258T301 324T327 407Q327 411 326 419T320 436T307 450T283 456Q268 456 246 446T198 405T146 319T97 176ZM409 684L264 540H248L318 684H409Z"  />
<glyph unicode="&#xEA;" horiz-adv-x="406" d="M352 125Q331 100 308 75T257 30T200 -3T137 -16Q105 -16 82 -3T45 32T23 79T16 129Q16 189 41 252T107 366T196 451T294 484Q305 484 320 481T348 469T370 446T379 408Q379 374 363 344T321 288T264 240T200 201T140 172T94 151Q93 145 92 131T90 102Q90 91 93 77T103 50T124 29T157 20Q185 20 212 34T262 67T304 107T334 141L352 125ZM97 176Q124 189 163 209T239 258T301 324T327 407Q327 411 326 419T320 436T307 450T283 456Q268 456 246 446T198 405T146 319T97 176ZM384 684L428 539H408L339 632L181 539H155L323 684H384Z"  />
<glyph unicode="&#xEB;" horiz-adv-x="406" d="M352 125Q331 100 308 75T257 30T200 -3T137 -16Q105 -16 82 -3T45 32T23 79T16 129Q16 189 41 252T107 366T196 451T294 484Q305 484 320 481T348 469T370 446T379 408Q379 374 363 344T321 288T264 240T200 201T140 172T94 151Q93 145 92 131T90 102Q90 91 93 77T103 50T124 29T157 20Q185 20 212 34T262 67T304 107T334 141L352 125ZM97 176Q124 189 163 209T239 258T301 324T327 407Q327 411 326 419T320 436T307 450T283 456Q268 456 246 446T198 405T146 319T97 176ZM230 618Q247 618 258 607T270 579Q270 562 259 551T230 540Q215 540 204 551T192 579Q192 596 203 607T230 618ZM409 618Q425 618 436 607T448 579Q448 562 437 551T409 540Q392 540 381 551T370 579Q370 596 381 607T409 618Z"  />
<glyph unicode="&#xEC;" horiz-adv-x="250" d="M101 126Q96 113 90 92T84 58Q84 51 87 43T101 34Q113 34 129 49T160 84T188 121T204 144L225 132Q212 111 195 86T157 38T113 0T67 -16Q44 -16 29 0T13 45Q13 60 17 74T23 95L125 390Q127 395 128 400T129 413Q129 424 125 430T116 436Q107 436 95 425T69 397T42 361T17 326L-1 338Q14 361 32 386T69 434T110 470T152 484Q167 484 176 478T189 463T195 446T197 434Q197 413 193 395T183 364L101 126ZM269 540H253L108 684H199L269 540Z"  />
<glyph unicode="&#xED;" horiz-adv-x="250" d="M101 126Q96 113 90 92T84 58Q84 51 87 43T101 34Q113 34 129 49T160 84T188 121T204 144L225 132Q212 111 195 86T157 38T113 0T67 -16Q44 -16 29 0T13 45Q13 60 17 74T23 95L125 390Q127 395 128 400T129 413Q129 424 125 430T116 436Q107 436 95 425T69 397T42 361T17 326L-1 338Q14 361 32 386T69 434T110 470T152 484Q167 484 176 478T189 463T195 446T197 434Q197 413 193 395T183 364L101 126ZM323 684L178 540H162L232 684H323Z"  />
<glyph unicode="&#xEE;" horiz-adv-x="250" d="M101 126Q96 113 90 92T84 58Q84 51 87 43T101 34Q113 34 129 49T160 84T188 121T204 144L225 132Q212 111 195 86T157 38T113 0T67 -16Q44 -16 29 0T13 45Q13 60 17 74T23 95L125 390Q127 395 128 400T129 413Q129 424 125 430T116 436Q107 436 95 425T69 397T42 361T17 326L-1 338Q14 361 32 386T69 434T110 470T152 484Q167 484 176 478T189 463T195 446T197 434Q197 413 193 395T183 364L101 126ZM276 684L320 539H300L231 632L73 539H47L215 684H276Z"  />
<glyph unicode="&#xEF;" horiz-adv-x="250" d="M101 126Q96 113 90 92T84 58Q84 51 87 43T101 34Q113 34 129 49T160 84T188 121T204 144L225 132Q212 111 195 86T157 38T113 0T67 -16Q44 -16 29 0T13 45Q13 60 17 74T23 95L125 390Q127 395 128 400T129 413Q129 424 125 430T116 436Q107 436 95 425T69 397T42 361T17 326L-1 338Q14 361 32 386T69 434T110 470T152 484Q167 484 176 478T189 463T195 446T197 434Q197 413 193 395T183 364L101 126ZM94 618Q111 618 122 607T134 579Q134 562 123 551T94 540Q79 540 68 551T56 579Q56 596 67 607T94 618ZM273 618Q289 618 300 607T312 579Q312 562 301 551T273 540Q256 540 245 551T234 579Q234 596 245 607T273 618Z"  />
<glyph unicode="&#xF0;" horiz-adv-x="448" d="M429 716L444 693L365 643Q399 583 414 516T429 380Q429 287 404 214T339 89T253 11T164 -16Q128 -16 102 -1T59 37T34 89T25 147Q25 202 47 261T105 370T188 452T287 484Q320 484 337 471T363 447L365 449Q364 458 363 478T357 522T347 573T330 621L205 544L190 567L319 647Q300 682 289 696T272 719L293 737Q311 720 324 705T351 667L429 716ZM169 12Q193 12 211 22T242 45T264 71T277 92Q290 117 304 152T329 227T347 304T355 375Q355 386 353 400T343 426T321 447T283 456Q244 456 219 435T173 381Q158 356 144 318T117 238T98 157T91 91Q91 58 110 35T169 12Z"  />
<glyph unicode="&#xF1;" horiz-adv-x="531" d="M503 131Q485 98 466 71T427 25T388 -5T350 -16Q333 -16 324 -10T309 5T303 23T301 37Q301 49 304 69T316 115L391 333Q396 347 402 369T408 406Q408 418 404 427T384 436Q370 436 354 425T323 396T294 361T272 328Q268 322 254 299T221 243T180 174T138 102T102 41T79 0H12L126 326Q128 332 131 343T138 367T144 393T147 417Q147 424 144 429T136 434Q129 434 123 430T115 424Q109 418 102 411T86 391T61 360T23 312L6 324Q21 347 41 375T82 427T126 467T169 484Q192 484 205 467T218 429Q218 404 206 367T178 284Q165 248 152 211T122 122L124 120Q128 127 136 141T155 174T177 213T199 251T218 283T231 304Q256 345 278 378T322 434T365 471T410 484Q443 484 458 461T474 409Q474 391 470 375T462 350L384 120Q376 96 373 81T369 55Q369 48 372 41T384 34Q395 34 407 44T433 71T460 106T485 143L503 131ZM501 647Q501 639 499 621T488 585Q480 567 464 553T417 539Q399 539 382 547T329 575Q312 584 302 589T285 596T274 598T266 599Q250 599 241 592T227 574T221 554T219 539H202Q202 565 209 585T227 619Q252 647 288 647Q299 647 316 642T368 618Q387 607 398 601T416 592T428 588T438 587Q452 587 461 593T475 609T482 628T486 647H501Z"  />
<glyph unicode="&#xF2;" horiz-adv-x="469" d="M293 484Q312 484 335 474T378 444T411 395T424 325Q424 266 402 206T344 96T262 15T165 -16Q129 -16 103 -1T60 38T34 90T26 145Q26 200 47 259T106 369T191 451T293 484ZM283 456Q247 456 219 433T170 373T134 294T110 210T96 139T92 95Q92 62 109 37T168 12Q204 12 232 36T282 97T317 178T341 263T354 333T358 372Q358 410 338 433T283 456ZM406 540H390L245 684H336L406 540Z"  />
<glyph unicode="&#xF3;" horiz-adv-x="469" d="M293 484Q312 484 335 474T378 444T411 395T424 325Q424 266 402 206T344 96T262 15T165 -16Q129 -16 103 -1T60 38T34 90T26 145Q26 200 47 259T106 369T191 451T293 484ZM283 456Q247 456 219 433T170 373T134 294T110 210T96 139T92 95Q92 62 109 37T168 12Q204 12 232 36T282 97T317 178T341 263T354 333T358 372Q358 410 338 433T283 456ZM430 684L285 540H269L339 684H430Z"  />
<glyph unicode="&#xF4;" horiz-adv-x="469" d="M293 484Q312 484 335 474T378 444T411 395T424 325Q424 266 402 206T344 96T262 15T165 -16Q129 -16 103 -1T60 38T34 90T26 145Q26 200 47 259T106 369T191 451T293 484ZM283 456Q247 456 219 433T170 373T134 294T110 210T96 139T92 95Q92 62 109 37T168 12Q204 12 232 36T282 97T317 178T341 263T354 333T358 372Q358 410 338 433T283 456ZM405 684L449 539H429L360 632L202 539H176L344 684H405Z"  />
<glyph unicode="&#xF5;" horiz-adv-x="469" d="M293 484Q312 484 335 474T378 444T411 395T424 325Q424 266 402 206T344 96T262 15T165 -16Q129 -16 103 -1T60 38T34 90T26 145Q26 200 47 259T106 369T191 451T293 484ZM283 456Q247 456 219 433T170 373T134 294T110 210T96 139T92 95Q92 62 109 37T168 12Q204 12 232 36T282 97T317 178T341 263T354 333T358 372Q358 410 338 433T283 456ZM490 647Q490 639 488 621T477 585Q469 567 453 553T406 539Q388 539 371 547T318 575Q301 584 291 589T274 596T263 598T255 599Q239 599 230 592T216 574T210 554T208 539H191Q191 565 198 585T216 619Q241 647 277 647Q288 647 305 642T357 618Q376 607 387 601T405 592T417 588T427 587Q441 587 450 593T464 609T471 628T475 647H490Z"  />
<glyph unicode="&#xF6;" horiz-adv-x="469" d="M293 484Q312 484 335 474T378 444T411 395T424 325Q424 266 402 206T344 96T262 15T165 -16Q129 -16 103 -1T60 38T34 90T26 145Q26 200 47 259T106 369T191 451T293 484ZM283 456Q247 456 219 433T170 373T134 294T110 210T96 139T92 95Q92 62 109 37T168 12Q204 12 232 36T282 97T317 178T341 263T354 333T358 372Q358 410 338 433T283 456ZM251 618Q268 618 279 607T291 579Q291 562 280 551T251 540Q236 540 225 551T213 579Q213 596 224 607T251 618ZM430 618Q446 618 457 607T469 579Q469 562 458 551T430 540Q413 540 402 551T391 579Q391 596 402 607T430 618Z"  />
<glyph unicode="&#xF7;" horiz-adv-x="667" d="M347 155Q361 155 371 145T382 120Q382 105 372 95T347 85Q333 85 323 95T312 120Q312 134 322 144T347 155ZM347 557Q361 557 371 547T382 522Q382 507 372 497T347 487Q333 487 323 497T312 522Q312 536 322 546T347 557ZM613 347V295H84V347H613Z"  />
<glyph unicode="&#xF8;" horiz-adv-x="469" d="M410 481L431 460L397 419Q411 396 416 374T422 325Q422 266 401 206T343 96T261 15T164 -16Q126 -16 107 -4T76 19L49 -14L27 7L56 43Q37 73 32 100T26 144Q26 205 49 266T110 375T194 454T285 484Q291 484 301 483T323 478T350 466T379 443L410 481ZM350 411Q344 427 334 436T315 450T296 455T282 456Q247 456 219 433T170 374T134 295T110 211T96 137T92 89L350 411ZM100 51Q103 46 107 39T118 26T137 16T167 12Q203 12 231 35T280 95T315 175T339 259T352 329T356 371H354L100 51Z"  />
<glyph unicode="&#xF9;" horiz-adv-x="521" d="M114 116Q112 111 107 94T102 62Q102 60 102 55T105 45T111 36T125 32Q135 32 148 41T172 62T191 85T203 99Q206 104 220 127T255 183T300 257T347 337T389 411T420 468H488L386 182Q382 172 376 154T364 117T354 81T350 55Q350 50 352 41T367 32Q370 32 378 36T399 52T430 85T471 142L490 129Q477 108 460 83T422 36T379 -1T332 -16Q315 -16 306 -9T293 7T288 25T287 38Q287 54 293 88T314 164L373 334L371 336L300 206Q295 196 281 173T249 122T214 69T184 31Q164 10 143 -3T99 -16Q66 -16 53 6T39 56Q39 76 43 94T52 124L136 364Q142 380 145 389T150 404T152 413T153 420Q153 425 150 429T142 434Q134 434 121 422T94 392T66 354T41 317L23 330Q38 354 56 381T93 431T134 469T177 484Q201 484 210 468T219 437Q219 417 215 401T208 378L114 116ZM432 540H416L271 684H362L432 540Z"  />
<glyph unicode="&#xFA;" horiz-adv-x="521" d="M114 116Q112 111 107 94T102 62Q102 60 102 55T105 45T111 36T125 32Q135 32 148 41T172 62T191 85T203 99Q206 104 220 127T255 183T300 257T347 337T389 411T420 468H488L386 182Q382 172 376 154T364 117T354 81T350 55Q350 50 352 41T367 32Q370 32 378 36T399 52T430 85T471 142L490 129Q477 108 460 83T422 36T379 -1T332 -16Q315 -16 306 -9T293 7T288 25T287 38Q287 54 293 88T314 164L373 334L371 336L300 206Q295 196 281 173T249 122T214 69T184 31Q164 10 143 -3T99 -16Q66 -16 53 6T39 56Q39 76 43 94T52 124L136 364Q142 380 145 389T150 404T152 413T153 420Q153 425 150 429T142 434Q134 434 121 422T94 392T66 354T41 317L23 330Q38 354 56 381T93 431T134 469T177 484Q201 484 210 468T219 437Q219 417 215 401T208 378L114 116ZM456 684L311 540H295L365 684H456Z"  />
<glyph unicode="&#xFB;" horiz-adv-x="521" d="M114 116Q112 111 107 94T102 62Q102 60 102 55T105 45T111 36T125 32Q135 32 148 41T172 62T191 85T203 99Q206 104 220 127T255 183T300 257T347 337T389 411T420 468H488L386 182Q382 172 376 154T364 117T354 81T350 55Q350 50 352 41T367 32Q370 32 378 36T399 52T430 85T471 142L490 129Q477 108 460 83T422 36T379 -1T332 -16Q315 -16 306 -9T293 7T288 25T287 38Q287 54 293 88T314 164L373 334L371 336L300 206Q295 196 281 173T249 122T214 69T184 31Q164 10 143 -3T99 -16Q66 -16 53 6T39 56Q39 76 43 94T52 124L136 364Q142 380 145 389T150 404T152 413T153 420Q153 425 150 429T142 434Q134 434 121 422T94 392T66 354T41 317L23 330Q38 354 56 381T93 431T134 469T177 484Q201 484 210 468T219 437Q219 417 215 401T208 378L114 116ZM429 684L473 539H453L384 632L226 539H200L368 684H429Z"  />
<glyph unicode="&#xFC;" horiz-adv-x="521" d="M114 116Q112 111 107 94T102 62Q102 60 102 55T105 45T111 36T125 32Q135 32 148 41T172 62T191 85T203 99Q206 104 220 127T255 183T300 257T347 337T389 411T420 468H488L386 182Q382 172 376 154T364 117T354 81T350 55Q350 50 352 41T367 32Q370 32 378 36T399 52T430 85T471 142L490 129Q477 108 460 83T422 36T379 -1T332 -16Q315 -16 306 -9T293 7T288 25T287 38Q287 54 293 88T314 164L373 334L371 336L300 206Q295 196 281 173T249 122T214 69T184 31Q164 10 143 -3T99 -16Q66 -16 53 6T39 56Q39 76 43 94T52 124L136 364Q142 380 145 389T150 404T152 413T153 420Q153 425 150 429T142 434Q134 434 121 422T94 392T66 354T41 317L23 330Q38 354 56 381T93 431T134 469T177 484Q201 484 210 468T219 437Q219 417 215 401T208 378L114 116ZM277 618Q294 618 305 607T317 579Q317 562 306 551T277 540Q262 540 251 551T239 579Q239 596 250 607T277 618ZM456 618Q472 618 483 607T495 579Q495 562 484 551T456 540Q439 540 428 551T417 579Q417 596 428 607T456 618Z"  />
<glyph unicode="&#xFD;" horiz-adv-x="417" d="M227 79Q243 103 263 138T301 209T331 277T343 330Q343 339 341 352T324 391Q314 409 313 417T311 433Q311 450 321 467T352 484Q368 484 377 477T392 459T398 438T400 424Q400 386 382 330T334 213T268 90T193 -21Q181 -37 157 -64T100 -118T30 -164T-47 -184Q-54 -184 -63 -182T-79 -175T-92 -161T-98 -139Q-98 -116 -82 -107T-48 -97Q-43 -97 -39 -97T-28 -100Q-8 -106 8 -111T32 -116Q51 -116 69 -106T106 -79T141 -41T174 0L128 312Q127 319 125 333T121 364T116 393T113 411Q111 414 108 420T99 427Q91 427 82 415T64 385T47 350T34 320L14 328Q20 345 30 371T55 423T88 466T127 484Q153 484 162 463T178 402L227 79ZM404 684L259 540H243L313 684H404Z"  />
<glyph unicode="&#xFE;" horiz-adv-x="479" d="M255 737H269L171 388L173 386Q182 401 193 418T221 450T258 474T309 484Q345 484 366 468T400 430T415 381T419 336Q419 267 395 203T334 91T249 13T157 -16Q125 -16 105 -3T74 32L38 -97Q35 -106 35 -119Q35 -133 42 -140T60 -151T82 -155T101 -156L94 -184H-118L-111 -156Q-101 -156 -89 -155T-65 -147T-43 -129T-27 -94L169 612Q170 616 171 622T172 637Q172 651 165 659T148 671T126 676T103 679L111 705L255 737ZM153 16Q187 16 214 35T264 86T301 157T327 235T343 308T348 366Q348 375 346 389T338 416T319 438T288 448Q267 448 250 439T220 417T196 390T180 365Q164 338 148 295T120 208T100 128T92 78Q92 71 94 61T103 40T122 23T153 16Z"  />
<glyph unicode="&#xFF;" horiz-adv-x="417" d="M227 79Q243 103 263 138T301 209T331 277T343 330Q343 339 341 352T324 391Q314 409 313 417T311 433Q311 450 321 467T352 484Q368 484 377 477T392 459T398 438T400 424Q400 386 382 330T334 213T268 90T193 -21Q181 -37 157 -64T100 -118T30 -164T-47 -184Q-54 -184 -63 -182T-79 -175T-92 -161T-98 -139Q-98 -116 -82 -107T-48 -97Q-43 -97 -39 -97T-28 -100Q-8 -106 8 -111T32 -116Q51 -116 69 -106T106 -79T141 -41T174 0L128 312Q127 319 125 333T121 364T116 393T113 411Q111 414 108 420T99 427Q91 427 82 415T64 385T47 350T34 320L14 328Q20 345 30 371T55 423T88 466T127 484Q153 484 162 463T178 402L227 79ZM197 618Q214 618 225 607T237 579Q237 562 226 551T197 540Q182 540 171 551T159 579Q159 596 170 607T197 618ZM376 618Q392 618 403 607T415 579Q415 562 404 551T376 540Q359 540 348 551T337 579Q337 596 348 607T376 618Z"  />
<glyph unicode="&#x131;" horiz-adv-x="250" d="M101 126Q96 113 90 92T84 58Q84 51 87 43T101 34Q113 34 129 49T160 84T188 121T204 144L225 132Q212 111 195 86T157 38T113 0T67 -16Q44 -16 29 0T13 45Q13 60 17 74T23 95L125 390Q127 395 128 400T129 413Q129 424 125 430T116 436Q107 436 95 425T69 397T42 361T17 326L-1 338Q14 361 32 386T69 434T110 470T152 484Q167 484 176 478T189 463T195 446T197 434Q197 413 193 395T183 364L101 126Z"  />
<glyph unicode="&#x152;" horiz-adv-x="1031" d="M1100 535L1074 534Q1057 570 1039 599T993 650T929 682T836 693Q807 693 788 691T755 681T732 656T715 609L654 385H732Q778 385 807 397T855 426T883 463T899 498H925L846 215H820Q825 240 826 250T828 269Q828 295 820 312T796 339T760 353T715 357H646L577 108Q575 100 573 88T570 62Q570 42 590 35T657 27Q707 27 744 31T809 44T860 63T902 88Q908 92 920 100T946 122T977 151T1007 187L1030 174L941 0H519Q490 0 465 -2T403 -11Q371 -16 353 -18T316 -20Q248 -20 199 8T119 80T72 174T57 272Q57 317 67 363T95 452T137 534T191 607Q248 671 313 706T458 741Q497 741 547 733T655 721H1071L1100 535ZM612 531Q614 539 617 554T620 586Q620 627 603 651T562 688T511 705T464 709Q412 709 368 691T289 633Q259 597 233 550T187 447T156 331T144 206Q144 195 145 176T152 136T168 92T197 52T244 23T312 12Q364 12 399 29T458 72T495 127T515 180L612 531Z"  />
<glyph unicode="&#x153;" horiz-adv-x="656" d="M615 126Q600 106 579 82T532 35T475 -1T408 -16Q381 -16 363 -7T331 16T311 42T301 62Q265 18 226 1T153 -16Q126 -16 103 -5T62 26T34 75T24 136Q24 196 45 258T102 370T184 452T280 484Q307 484 327 475T361 453T384 424T402 394Q417 409 434 425T471 454T515 475T569 484Q573 484 585 483T610 474T633 453T644 412Q644 367 619 329T553 258T463 199T366 153Q365 147 364 132T362 100Q362 86 365 72T375 47T395 28T425 20Q452 20 479 34T529 67T570 107T600 141L615 126ZM154 12Q167 12 180 14T208 24T236 47T265 86Q277 107 291 143T317 220T337 303T345 381Q345 391 343 404T334 428T313 448T276 456Q241 456 215 435T170 384Q162 372 149 338T121 261T97 170T87 84Q87 76 89 64T98 41T118 21T154 12ZM371 177Q381 182 402 192T447 217T498 252T545 296T579 347T593 406Q593 436 579 446T552 456Q532 456 508 440T459 390T411 303T371 177Z"  />
<glyph unicode="&#x160;" horiz-adv-x="552" d="M586 535L559 532Q530 616 485 663T369 711Q336 711 307 700T257 670T224 626T212 574Q212 547 222 527T251 489T295 458T350 429Q392 408 424 387T478 342T511 288T523 220Q523 176 508 133T463 56T392 1T297 -20Q275 -20 252 -15T189 10Q161 23 150 25T131 28Q114 28 101 23T63 6L41 203L69 206Q80 178 94 150T137 89Q169 55 208 35T296 14Q334 14 364 27T416 63T448 115T460 176Q460 209 449 232T415 276T361 314T287 354Q257 369 232 386T189 425T161 472T151 531Q151 577 168 615T216 682T286 725T371 741Q388 741 407 738T462 721Q466 719 482 714T510 709Q517 709 525 711T542 717T556 723T565 727L586 535ZM360 785L316 930H336L405 837L563 930H589L421 785H360Z"  />
<glyph unicode="&#x161;" horiz-adv-x="385" d="M267 231Q293 201 299 176T306 134Q306 103 295 76T261 28T208 -4T137 -16Q107 -16 81 -9T36 11T5 41T-6 80Q-6 100 7 112T38 124Q54 124 63 115T79 78Q87 47 102 30T152 12Q176 12 194 20T225 40T245 68T252 98Q252 135 232 160T170 213Q152 225 136 238T106 268T86 303T78 348Q78 376 88 401T118 444T165 473T228 484Q253 484 276 478T317 461T346 433T357 397Q357 383 348 370T316 357Q300 357 291 366T273 401Q265 430 253 443T214 456Q192 456 176 448T150 428T135 403T130 378Q130 353 145 335T177 302Q182 297 195 288T223 267T250 245T267 231ZM208 539L164 684H184L253 591L411 684H437L269 539H208Z"  />
<glyph unicode="&#x178;" horiz-adv-x="677" d="M391 721L383 693Q362 693 346 692T317 687T299 674T292 649Q292 632 295 616T301 592L369 329L599 607Q607 617 614 630T622 655Q622 668 614 675T595 687T571 692T552 693L561 721H784L778 693Q753 691 733 682T697 662T670 638T653 619L386 295L332 98Q330 92 329 83T327 63Q327 50 334 43T354 33T384 29T421 28L412 0H125L133 28Q158 28 176 29T207 36T230 55T247 93L301 284L229 560Q217 606 208 632T187 672T159 688T115 693L122 721H391ZM395 864Q412 864 423 853T435 825Q435 808 424 797T395 786Q380 786 369 797T357 825Q357 842 368 853T395 864ZM574 864Q590 864 601 853T613 825Q613 808 602 797T574 786Q557 786 546 797T535 825Q535 842 546 853T574 864Z"  />
<glyph unicode="&#x17D;" horiz-adv-x="531" d="M632 721V696L82 28H216Q274 28 320 46T401 89T460 141T500 186L525 174L436 0H-23V24L532 693H403Q377 693 344 685T275 660Q225 636 193 608T126 540L103 552L188 721H632ZM359 785L315 930H335L404 837L562 930H588L420 785H359Z"  />
<glyph unicode="&#x17E;" horiz-adv-x="375" d="M372 473Q364 434 346 396T305 325T253 263T197 216Q190 211 174 201T139 179T105 157T83 142Q60 125 46 107T17 69L19 67Q59 85 77 90T110 96Q118 96 126 95T145 90T167 77T195 53Q218 30 230 24T252 18Q258 18 264 21T270 33Q270 36 269 40T261 53Q253 64 251 71T248 86Q248 103 259 111T284 120Q304 120 313 105T323 70Q323 33 294 9T224 -16Q210 -16 195 -13T166 -5T140 5T122 13Q105 20 85 27T48 35Q32 35 21 29T1 15T-12 -2T-20 -16L-41 -4Q-20 60 6 105T64 185T130 246T204 297Q238 319 258 334T290 361T309 386T325 415L323 417Q299 402 278 399T249 395Q242 395 231 396T193 406Q189 407 174 411T145 415Q130 415 116 408T91 389T70 366T53 343L34 354Q43 368 57 390T91 433T134 469T185 484Q193 484 206 482T247 464Q271 451 281 449T298 447Q324 447 335 460T352 484L372 473ZM203 539L159 684H179L248 591L406 684H432L264 539H203Z"  />
<glyph unicode="&#x192;" horiz-adv-x="594" d="M473 428L463 395H351Q329 299 314 234T286 121T260 38T230 -34Q205 -86 179 -121T128 -179T81 -212T40 -222Q17 -222 6 -211T-6 -185Q-6 -171 4 -158T35 -145Q38 -145 45 -146T60 -148T75 -150T85 -151Q113 -151 133 -132T167 -79T193 0T216 96Q225 137 233 172T250 242T269 313T292 395H198L208 428H303Q325 503 353 554T412 637T474 683T533 697Q552 697 569 688T586 654Q586 636 574 626T545 616Q537 616 529 618T506 629Q492 637 486 638T475 640Q451 640 432 614T397 552T372 481T357 428H473Z"  />
<glyph unicode="&#x2C6;" horiz-adv-x="333" d="M405 676L449 531H429L360 624L202 531H176L344 676H405Z"  />
<glyph unicode="&#x2C7;" horiz-adv-x="333" d="M220 531L176 676H196L265 583L423 676H449L281 531H220Z"  />
<glyph unicode="&#x2DA;" horiz-adv-x="333" d="M313 714Q332 714 348 707T377 688T397 658T404 622Q404 603 397 586T378 557T349 537T313 530Q294 530 277 537T248 556T228 586T221 622Q221 641 228 658T247 687T277 707T313 714ZM312 686Q286 686 268 668T249 622Q249 595 267 577T312 558Q339 558 357 577T376 622Q376 648 358 667T312 686Z"  />
<glyph unicode="&#x2DC;" horiz-adv-x="333" d="M462 639Q462 631 460 613T449 577Q441 559 425 545T378 531Q360 531 343 539T290 567Q273 576 263 581T246 588T235 590T227 591Q211 591 202 584T188 566T182 546T180 531H163Q163 557 170 577T188 611Q213 639 249 639Q260 639 277 634T329 610Q348 599 359 593T377 584T389 580T399 579Q413 579 422 585T436 601T443 620T447 639H462Z"  />
<glyph unicode="&#x2013;" horiz-adv-x="500" d="M506 274V234H-6V274H506Z"  />
<glyph unicode="&#x2014;" horiz-adv-x="1000" d="M1006 273V233H-6V273H1006Z"  />
<glyph unicode="&#x2018;" horiz-adv-x="260" d="M300 719Q286 710 269 699T238 676T214 651T204 626Q204 618 210 609T224 591Q241 572 244 563T247 545Q247 525 233 511T195 496Q169 496 151 514T133 565Q133 598 151 626T194 676T245 715T287 741L300 719Z"  />
<glyph unicode="&#x2019;" horiz-adv-x="260" d="M118 518Q132 527 149 538T180 561T204 586T214 611Q214 619 208 628T194 646Q177 665 174 674T171 692Q171 712 185 726T223 741Q249 741 267 723T285 672Q285 639 267 611T224 560T173 521T131 496L118 518Z"  />
<glyph unicode="&#x201A;" horiz-adv-x="260" d="M-26 -131Q-12 -122 5 -111T36 -88T60 -63T70 -38Q70 -30 64 -21T50 -3Q33 16 30 25T27 43Q27 63 41 77T79 92Q105 92 123 74T141 23Q141 -10 123 -38T80 -89T29 -128T-13 -153L-26 -131Z"  />
<glyph unicode="&#x201C;" horiz-adv-x="448" d="M300 719Q286 710 269 699T238 676T214 651T204 626Q204 618 210 609T224 591Q241 572 244 563T247 545Q247 525 233 511T195 496Q169 496 151 514T133 565Q133 598 151 626T194 676T245 715T287 741L300 719ZM487 719Q473 710 456 699T425 676T401 651T391 626Q391 618 397 609T411 591Q428 572 431 563T434 545Q434 525 420 511T382 496Q356 496 338 514T320 565Q320 598 338 626T381 676T432 715T474 741L487 719Z"  />
<glyph unicode="&#x201D;" horiz-adv-x="448" d="M305 518Q319 527 336 538T367 561T391 586T401 611Q401 619 395 628T381 646Q364 665 361 674T358 692Q358 712 372 726T410 741Q436 741 454 723T472 672Q472 639 454 611T411 560T360 521T318 496L305 518ZM118 518Q132 527 149 538T180 561T204 586T214 611Q214 619 208 628T194 646Q177 665 174 674T171 692Q171 712 185 726T223 741Q249 741 267 723T285 672Q285 639 267 611T224 560T173 521T131 496L118 518Z"  />
<glyph unicode="&#x201E;" horiz-adv-x="448" d="M161 -132Q175 -123 192 -112T223 -89T247 -64T257 -39Q257 -31 251 -22T237 -4Q220 15 217 24T214 42Q214 62 228 76T266 91Q292 91 310 73T328 22Q328 -11 310 -39T267 -90T216 -129T174 -154L161 -132ZM-26 -132Q-12 -123 5 -112T36 -89T60 -64T70 -39Q70 -31 64 -22T50 -4Q33 15 30 24T27 42Q27 62 41 76T79 91Q105 91 123 73T141 22Q141 -11 123 -39T80 -90T29 -129T-13 -154L-26 -132Z"  />
<glyph unicode="&#x2020;" horiz-adv-x="521" d="M151 -184H132L192 33Q217 124 221 174T226 231Q226 241 225 253T223 270Q241 288 253 305T273 339T286 375T297 416Q286 416 276 416T252 413T221 408T179 397Q168 394 152 391T125 387Q114 387 101 392T88 420Q88 443 107 456T151 469Q157 469 167 468T202 459Q221 454 234 451T259 447T281 445T306 444Q316 480 321 503T329 545T332 585T333 637Q334 671 348 696T392 721Q403 721 409 717T418 708T421 697T422 690Q422 679 417 664T397 625Q382 598 371 576T353 533T339 491T326 444Q338 444 348 444T371 446T398 451T435 460Q444 462 461 466T493 471Q511 471 522 465T534 441Q534 435 532 426T523 409T504 396T471 390Q463 390 453 391T417 400Q401 405 390 407T367 411T344 414T316 416Q310 392 305 368T300 318Q300 297 303 287T310 265Q299 248 288 229T264 183T239 119T210 28L151 -184Z"  />
<glyph unicode="&#x2021;" horiz-adv-x="521" d="M327 466Q337 466 345 466T364 468T387 471T419 478Q422 479 434 481T459 487T484 492T498 494Q509 494 522 488T535 462Q535 442 519 427T473 412Q467 412 458 413T425 421Q408 426 396 429T372 433T348 436T317 438Q306 397 301 367T295 311Q295 294 298 286T305 267Q288 248 277 232T257 197T241 154T224 93Q243 94 260 95T310 105Q315 106 327 109T353 115T378 120T394 122Q398 122 404 121T417 117T427 108T431 90Q431 73 415 57T366 40Q360 40 352 41T321 49Q304 54 291 57T267 61T243 64T215 65Q209 45 206 29T200 -4T197 -39T195 -79Q195 -94 194 -112T186 -146T169 -173T137 -184Q124 -184 114 -178T104 -154Q104 -146 107 -133T131 -86Q144 -63 153 -45T169 -9T181 26T193 65Q176 65 165 65T143 63T117 58T80 50Q59 45 45 42T18 39Q8 39 -4 45T-17 67Q-17 74 -14 83T-4 101T16 116T46 122Q51 122 61 121T99 111Q117 106 129 103T153 98T176 95T202 93Q213 129 219 156T226 210Q226 225 223 239T215 267Q223 276 233 288T255 320T276 368T296 438Q284 437 274 437T252 435T225 431T187 423Q174 420 155 416T123 412Q107 412 98 419T88 442Q88 449 91 458T101 475T120 488T150 494Q158 494 167 493T199 484Q215 479 227 476T250 471T275 468T305 466Q312 488 316 507T322 544T326 582T328 626Q328 635 329 650T337 682T354 709T387 721Q417 721 417 690Q417 681 414 668T392 623Q379 601 370 584T354 549T341 512T327 466Z"  />
<glyph unicode="&#x2022;" horiz-adv-x="354" d="M192 453Q217 453 239 444T278 418T305 379T315 330Q315 305 306 283T279 244T240 218T192 208Q167 208 145 217T106 243T80 282T70 330Q70 356 79 378T105 417T144 443T192 453Z"  />
<glyph unicode="&#x2026;" horiz-adv-x="1000" d="M834 92Q857 92 872 76T888 38Q888 15 873 0T834 -16Q811 -16 796 -1T780 38Q780 60 795 76T834 92ZM500 92Q523 92 538 76T554 38Q554 15 539 0T500 -16Q477 -16 462 -1T446 38Q446 60 461 76T500 92ZM166 92Q189 92 204 76T220 38Q220 15 205 0T166 -16Q143 -16 128 -1T112 38Q112 60 127 76T166 92Z"  />
<glyph unicode="&#x2030;" horiz-adv-x="1021" d="M272 735Q296 735 316 725T351 698T374 660T382 615Q382 576 367 535T326 460T268 404T201 382Q181 382 162 390T128 414T104 450T94 496Q94 527 106 568T140 647T196 709T272 735ZM200 403Q226 403 245 420T279 462T303 518T318 576T326 623T329 649Q329 659 326 670T316 692T299 708T274 714Q253 714 235 700T203 663T179 613T161 558T151 508T147 471Q147 460 150 448T159 426T176 410T200 403ZM537 331Q561 331 581 321T616 294T639 256T647 211Q647 172 632 131T591 56T533 0T466 -22Q446 -22 427 -14T393 10T369 46T359 92Q359 123 371 164T405 243T461 305T537 331ZM465 -1Q491 -1 510 15T543 57T567 113T583 170T591 219T594 246Q594 267 581 288T539 310Q518 310 500 296T468 259T444 209T426 154T416 104T412 67Q412 56 415 44T424 22T441 6T465 -1ZM873 331Q897 331 917 321T952 294T975 256T983 211Q983 172 968 131T927 56T869 0T802 -22Q782 -22 763 -14T728 10T704 46T694 92Q694 123 706 164T741 243T797 305T873 331ZM800 -1Q826 -1 845 15T879 57T903 113T919 170T927 219T930 246Q930 267 917 288T875 310Q854 310 836 296T804 259T779 209T761 154T751 104T747 67Q747 56 750 44T760 22T776 6T800 -1ZM709 737L62 -25H30L678 737H709Z"  />
<glyph unicode="&#x2039;" horiz-adv-x="219" d="M222 452L95 221L100 15H74L12 234L191 452H222Z"  />
<glyph unicode="&#x203A;" horiz-adv-x="219" d="M-9 15L118 246L113 452H139L201 233L22 15H-9Z"  />
<glyph unicode="&#x20AC;" horiz-adv-x="531" d="M478 298H170Q167 271 167 247Q167 213 174 178T198 113T240 64T303 45Q337 45 363 60T409 97T445 146T472 193L497 182Q485 158 467 124T423 59T361 6T281 -16Q243 -16 208 3T146 59T103 145T86 258Q86 268 86 278T88 298H31L38 330H91Q93 344 96 357T102 384H43L50 416H112Q130 473 159 524T223 614T298 674T379 697Q399 697 416 692T454 675Q468 667 473 667T482 666Q496 666 505 672T521 684L537 501H509Q503 520 496 548T474 603T436 648T373 667Q344 667 318 646T268 591T225 511T192 416H497L490 384H184Q181 370 179 357T174 330H485L478 298Z"  />
<glyph unicode="&#x2122;" horiz-adv-x="979" d="M400 721L411 623H394Q391 647 382 661T359 681T330 690T299 692H263V408Q263 388 265 376T272 358T288 348T315 344V327H132V344Q148 346 157 348T172 357T179 375T181 408V692H144Q118 692 102 688T75 674T59 652T51 623H34L45 721H400ZM718 442L847 721H983V703Q965 703 955 701T938 691T931 671T929 637V408Q929 388 930 376T937 358T953 348T983 344V327H789V344Q808 345 819 348T837 358T845 377T847 408V648H845L697 327H681L533 644H531V408Q531 394 531 382T536 362T550 349T577 344H594V327H445V344Q463 344 474 347T491 357T498 376T500 408V637Q500 656 499 669T493 689T476 700T445 703V721H584L718 442Z"  />

</font>
</defs>
</svg>
