<?xml version="1.0" encoding="utf-8"?>
<!-- Generator: Adobe Illustrator 16.0.4, SVG Export Plug-In . SVG Version: 6.00 Build 0)  -->
<!DOCTYPE svg PUBLIC "-//W3C//DTD SVG 1.1//EN" "http://www.w3.org/Graphics/SVG/1.1/DTD/svg11.dtd">
<svg version="1.1" id="Layer_1" xmlns="http://www.w3.org/2000/svg" xmlns:xlink="http://www.w3.org/1999/xlink" x="0px" y="0px"
	 width="168px" height="89.33px" viewBox="0 0 168 89.33" enable-background="new 0 0 168 89.33" xml:space="preserve">
<path fill="#E6E7E8" d="M162,17c0,5.34-4.33,9.67-9.67,9.67H15.67C10.33,26.67,6,22.34,6,17l0,0c0-5.34,4.33-9.67,9.67-9.67h136.67
	C157.67,7.33,162,11.66,162,17L162,17z"/>
<path fill="#E6E7E8" d="M162,45c0,5.34-4.33,9.67-9.67,9.67H15.67C10.33,54.67,6,50.34,6,45l0,0c0-5.34,4.33-9.67,9.67-9.67h136.67
	C157.67,35.33,162,39.66,162,45L162,45z"/>
<path fill="#E6E7E8" d="M162,73c0,5.34-4.33,9.67-9.67,9.67H15.67C10.33,82.67,6,78.34,6,73l0,0c0-5.34,4.33-9.67,9.67-9.67h136.67
	C157.67,63.33,162,67.66,162,73L162,73z"/>
</svg>
